<svg width="1457" height="780" viewBox="0 0 1457 780" fill="none" xmlns="http://www.w3.org/2000/svg">
<g filter="url(#filter0_d_38_22)">
<rect x="8" y="7" width="1440.91" height="764" fill="url(#paint0_linear_38_22)"/>
</g>
<path d="M441.461 572.867C268.715 584.669 140.611 703.499 63.4196 770.794H1448.91V454.11C1291.23 498.314 1063.3 662.913 797.731 652.038C655.324 646.206 575.762 563.691 441.461 572.867Z" fill="url(#paint1_linear_38_22)" fill-opacity="0.2"/>
<path d="M1100.56 40.6473C1100.56 46.113 1096.13 50.5437 1090.66 50.5437C1085.2 50.5437 1080.77 46.113 1080.77 40.6473C1080.77 35.1817 1085.2 30.751 1090.66 30.751C1096.13 30.751 1100.56 35.1817 1100.56 40.6473Z" fill="white" fill-opacity="0.2"/>
<path d="M1159.94 40.6473C1159.94 46.113 1155.51 50.5437 1150.04 50.5437C1144.58 50.5437 1140.15 46.113 1140.15 40.6473C1140.15 35.1817 1144.58 30.751 1150.04 30.751C1155.51 30.751 1159.94 35.1817 1159.94 40.6473Z" fill="white" fill-opacity="0.2"/>
<path d="M1219.32 40.6473C1219.32 46.113 1214.89 50.5437 1209.42 50.5437C1203.95 50.5437 1199.52 46.113 1199.52 40.6473C1199.52 35.1817 1203.95 30.751 1209.42 30.751C1214.89 30.751 1219.32 35.1817 1219.32 40.6473Z" fill="white" fill-opacity="0.2"/>
<path d="M1278.69 40.6473C1278.69 46.113 1274.26 50.5437 1268.8 50.5437C1263.33 50.5437 1258.9 46.113 1258.9 40.6473C1258.9 35.1817 1263.33 30.751 1268.8 30.751C1274.26 30.751 1278.69 35.1817 1278.69 40.6473Z" fill="white" fill-opacity="0.2"/>
<path d="M1338.07 40.6473C1338.07 46.113 1333.64 50.5437 1328.18 50.5437C1322.71 50.5437 1318.28 46.113 1318.28 40.6473C1318.28 35.1817 1322.71 30.751 1328.18 30.751C1333.64 30.751 1338.07 35.1817 1338.07 40.6473Z" fill="white" fill-opacity="0.2"/>
<path d="M1397.45 40.6473C1397.45 46.113 1393.02 50.5437 1387.55 50.5437C1382.09 50.5437 1377.66 46.113 1377.66 40.6473C1377.66 35.1817 1382.09 30.751 1387.55 30.751C1393.02 30.751 1397.45 35.1817 1397.45 40.6473Z" fill="white" fill-opacity="0.2"/>
<path d="M1100.56 100.026C1100.56 105.491 1096.13 109.922 1090.66 109.922C1085.2 109.922 1080.77 105.491 1080.77 100.026C1080.77 94.56 1085.2 90.1292 1090.66 90.1292C1096.13 90.1292 1100.56 94.56 1100.56 100.026Z" fill="white" fill-opacity="0.2"/>
<path d="M1159.94 100.026C1159.94 105.491 1155.51 109.922 1150.04 109.922C1144.58 109.922 1140.15 105.491 1140.15 100.026C1140.15 94.56 1144.58 90.1292 1150.04 90.1292C1155.51 90.1292 1159.94 94.56 1159.94 100.026Z" fill="white" fill-opacity="0.2"/>
<path d="M1219.32 100.026C1219.32 105.491 1214.89 109.922 1209.42 109.922C1203.95 109.922 1199.52 105.491 1199.52 100.026C1199.52 94.56 1203.95 90.1292 1209.42 90.1292C1214.89 90.1292 1219.32 94.56 1219.32 100.026Z" fill="white" fill-opacity="0.2"/>
<path d="M1278.69 100.026C1278.69 105.491 1274.26 109.922 1268.8 109.922C1263.33 109.922 1258.9 105.491 1258.9 100.026C1258.9 94.56 1263.33 90.1292 1268.8 90.1292C1274.26 90.1292 1278.69 94.56 1278.69 100.026Z" fill="white" fill-opacity="0.2"/>
<path d="M1338.07 100.026C1338.07 105.491 1333.64 109.922 1328.18 109.922C1322.71 109.922 1318.28 105.491 1318.28 100.026C1318.28 94.56 1322.71 90.1292 1328.18 90.1292C1333.64 90.1292 1338.07 94.56 1338.07 100.026Z" fill="white" fill-opacity="0.2"/>
<path d="M1397.45 100.026C1397.45 105.491 1393.02 109.922 1387.55 109.922C1382.09 109.922 1377.66 105.491 1377.66 100.026C1377.66 94.56 1382.09 90.1292 1387.55 90.1292C1393.02 90.1292 1397.45 94.56 1397.45 100.026Z" fill="white" fill-opacity="0.2"/>
<path d="M1100.56 159.404C1100.56 164.869 1096.13 169.3 1090.66 169.3C1085.2 169.3 1080.77 164.869 1080.77 159.404C1080.77 153.938 1085.2 149.507 1090.66 149.507C1096.13 149.507 1100.56 153.938 1100.56 159.404Z" fill="white" fill-opacity="0.2"/>
<path d="M1159.94 159.404C1159.94 164.869 1155.51 169.3 1150.04 169.3C1144.58 169.3 1140.15 164.869 1140.15 159.404C1140.15 153.938 1144.58 149.507 1150.04 149.507C1155.51 149.507 1159.94 153.938 1159.94 159.404Z" fill="white" fill-opacity="0.2"/>
<path d="M1219.32 159.404C1219.32 164.869 1214.89 169.3 1209.42 169.3C1203.95 169.3 1199.52 164.869 1199.52 159.404C1199.52 153.938 1203.95 149.507 1209.42 149.507C1214.89 149.507 1219.32 153.938 1219.32 159.404Z" fill="white" fill-opacity="0.2"/>
<path d="M1278.69 159.404C1278.69 164.869 1274.26 169.3 1268.8 169.3C1263.33 169.3 1258.9 164.869 1258.9 159.404C1258.9 153.938 1263.33 149.507 1268.8 149.507C1274.26 149.507 1278.69 153.938 1278.69 159.404Z" fill="white" fill-opacity="0.2"/>
<path d="M1338.07 159.404C1338.07 164.869 1333.64 169.3 1328.18 169.3C1322.71 169.3 1318.28 164.869 1318.28 159.404C1318.28 153.938 1322.71 149.507 1328.18 149.507C1333.64 149.507 1338.07 153.938 1338.07 159.404Z" fill="white" fill-opacity="0.2"/>
<path d="M1397.45 159.404C1397.45 164.869 1393.02 169.3 1387.55 169.3C1382.09 169.3 1377.66 164.869 1377.66 159.404C1377.66 153.938 1382.09 149.507 1387.55 149.507C1393.02 149.507 1397.45 153.938 1397.45 159.404Z" fill="white" fill-opacity="0.2"/>
<path d="M1100.56 218.782C1100.56 224.248 1096.13 228.678 1090.66 228.678C1085.2 228.678 1080.77 224.248 1080.77 218.782C1080.77 213.316 1085.2 208.886 1090.66 208.886C1096.13 208.886 1100.56 213.316 1100.56 218.782Z" fill="white" fill-opacity="0.2"/>
<path d="M1159.94 218.782C1159.94 224.248 1155.51 228.678 1150.04 228.678C1144.58 228.678 1140.15 224.248 1140.15 218.782C1140.15 213.316 1144.58 208.886 1150.04 208.886C1155.51 208.886 1159.94 213.316 1159.94 218.782Z" fill="white" fill-opacity="0.2"/>
<path d="M1219.32 218.782C1219.32 224.248 1214.89 228.678 1209.42 228.678C1203.95 228.678 1199.52 224.248 1199.52 218.782C1199.52 213.316 1203.95 208.886 1209.42 208.886C1214.89 208.886 1219.32 213.316 1219.32 218.782Z" fill="white" fill-opacity="0.2"/>
<path d="M1278.69 218.782C1278.69 224.248 1274.26 228.678 1268.8 228.678C1263.33 228.678 1258.9 224.248 1258.9 218.782C1258.9 213.316 1263.33 208.886 1268.8 208.886C1274.26 208.886 1278.69 213.316 1278.69 218.782Z" fill="white" fill-opacity="0.2"/>
<path d="M1338.07 218.782C1338.07 224.248 1333.64 228.678 1328.18 228.678C1322.71 228.678 1318.28 224.248 1318.28 218.782C1318.28 213.316 1322.71 208.886 1328.18 208.886C1333.64 208.886 1338.07 213.316 1338.07 218.782Z" fill="white" fill-opacity="0.2"/>
<path d="M1397.45 218.782C1397.45 224.248 1393.02 228.678 1387.55 228.678C1382.09 228.678 1377.66 224.248 1377.66 218.782C1377.66 213.316 1382.09 208.886 1387.55 208.886C1393.02 208.886 1397.45 213.316 1397.45 218.782Z" fill="white" fill-opacity="0.2"/>
<path d="M1100.56 278.16C1100.56 283.626 1096.13 288.057 1090.66 288.057C1085.2 288.057 1080.77 283.626 1080.77 278.16C1080.77 272.695 1085.2 268.264 1090.66 268.264C1096.13 268.264 1100.56 272.695 1100.56 278.16Z" fill="white" fill-opacity="0.2"/>
<path d="M1159.94 278.16C1159.94 283.626 1155.51 288.057 1150.04 288.057C1144.58 288.057 1140.15 283.626 1140.15 278.16C1140.15 272.695 1144.58 268.264 1150.04 268.264C1155.51 268.264 1159.94 272.695 1159.94 278.16Z" fill="white" fill-opacity="0.2"/>
<path d="M1219.32 278.16C1219.32 283.626 1214.89 288.057 1209.42 288.057C1203.95 288.057 1199.52 283.626 1199.52 278.16C1199.52 272.695 1203.95 268.264 1209.42 268.264C1214.89 268.264 1219.32 272.695 1219.32 278.16Z" fill="white" fill-opacity="0.2"/>
<path d="M1278.69 278.16C1278.69 283.626 1274.26 288.057 1268.8 288.057C1263.33 288.057 1258.9 283.626 1258.9 278.16C1258.9 272.695 1263.33 268.264 1268.8 268.264C1274.26 268.264 1278.69 272.695 1278.69 278.16Z" fill="white" fill-opacity="0.2"/>
<path d="M1338.07 278.16C1338.07 283.626 1333.64 288.057 1328.18 288.057C1322.71 288.057 1318.28 283.626 1318.28 278.16C1318.28 272.695 1322.71 268.264 1328.18 268.264C1333.64 268.264 1338.07 272.695 1338.07 278.16Z" fill="white" fill-opacity="0.2"/>
<path d="M1397.45 278.16C1397.45 283.626 1393.02 288.057 1387.55 288.057C1382.09 288.057 1377.66 283.626 1377.66 278.16C1377.66 272.695 1382.09 268.264 1387.55 268.264C1393.02 268.264 1397.45 272.695 1397.45 278.16Z" fill="white" fill-opacity="0.2"/>
<path d="M1015.45 204.928C1188.2 193.126 1316.3 74.2955 1393.49 7.00015H8.00012V323.684C165.682 279.48 393.614 114.881 659.182 125.757C801.588 131.588 881.15 214.103 1015.45 204.928Z" fill="url(#paint2_linear_38_22)" fill-opacity="0.2"/>
<defs>
<filter id="filter0_d_38_22" x="0" y="0" width="1456.91" height="780" filterUnits="userSpaceOnUse" color-interpolation-filters="sRGB">
<feFlood flood-opacity="0" result="BackgroundImageFix"/>
<feColorMatrix in="SourceAlpha" type="matrix" values="0 0 0 0 0 0 0 0 0 0 0 0 0 0 0 0 0 0 127 0" result="hardAlpha"/>
<feOffset dy="1"/>
<feGaussianBlur stdDeviation="4"/>
<feComposite in2="hardAlpha" operator="out"/>
<feColorMatrix type="matrix" values="0 0 0 0 0 0 0 0 0 0 0 0 0 0 0 0 0 0 0.18 0"/>
<feBlend mode="normal" in2="BackgroundImageFix" result="effect1_dropShadow_38_22"/>
<feBlend mode="normal" in="SourceGraphic" in2="effect1_dropShadow_38_22" result="shape"/>
</filter>
<linearGradient id="paint0_linear_38_22" x1="728.456" y1="7" x2="728.456" y2="771" gradientUnits="userSpaceOnUse">
<stop stop-color="#9FBC2E"/>
<stop offset="1" stop-color="#416326"/>
</linearGradient>
<linearGradient id="paint1_linear_38_22" x1="773.979" y1="565.156" x2="801.689" y2="917.466" gradientUnits="userSpaceOnUse">
<stop stop-color="#90FF00"/>
<stop offset="1" stop-color="white" stop-opacity="0"/>
</linearGradient>
<linearGradient id="paint2_linear_38_22" x1="682.933" y1="212.639" x2="655.223" y2="-139.672" gradientUnits="userSpaceOnUse">
<stop stop-color="#90FF00"/>
<stop offset="1" stop-color="white" stop-opacity="0"/>
</linearGradient>
</defs>
</svg>
