<svg width="99" height="38" viewBox="0 0 99 38" fill="none" xmlns="http://www.w3.org/2000/svg">
<g filter="url(#filter0_d_28_639)">
<path d="M3.50599 17.3652H8.51455L5.00856 36.8758H0L3.50599 17.3652Z" fill="#F1592A"/>
<path d="M14.7069 17.3652H19.8801L4.27432 35.6359L6.01027 27.3707L14.7069 17.3652Z" fill="#F1592A"/>
<path d="M11.4726 36.5095L17.1089 36.5095L10.9378 27.3707L7.7614 30.4633L11.4726 36.5095Z" fill="#F1592A"/>
</g>
<g filter="url(#filter1_d_28_639)">
<path d="M34.0809 1.96582L34.3278 2.00507L34.3738 1.71582H34.0809H30.2945H30.0793L30.0473 1.92854L30.2945 1.96582C30.0473 1.92854 30.0473 1.92858 30.0473 1.92865L30.0472 1.929L30.047 1.93039L30.0461 1.93596L30.0428 1.95801L30.0298 2.04422L29.9798 2.37237C29.9366 2.65554 29.8745 3.06105 29.7986 3.55037C29.647 4.52905 29.4408 5.84272 29.2225 7.18305C29.0041 8.52369 28.7739 9.88967 28.5741 10.9735C28.4742 11.5156 28.3822 11.9852 28.3034 12.345C28.2221 12.7167 28.1604 12.943 28.1249 13.0214C27.8367 13.6585 27.329 14.2693 26.508 14.2693C25.9607 14.2693 25.3923 13.8781 24.9307 13.4282C24.7067 13.2099 24.5209 12.9906 24.391 12.8256C24.3262 12.7433 24.2756 12.675 24.2416 12.6277C24.2246 12.604 24.2118 12.5857 24.2033 12.5735L24.1941 12.56L24.192 12.5569L24.1916 12.5564L24.1916 12.5563L24.1916 12.5563L24.1916 12.5563L24.0589 12.3576L23.8544 12.4813L20.8706 14.2862L20.6732 14.4056L20.7764 14.6119C21.3047 15.6685 22.2853 16.5724 23.4103 17.1936C24.5356 17.815 25.831 18.1678 27.0089 18.0949C29.3299 17.9513 31.6695 16.4611 32.1894 14.0352C32.6275 11.9908 33.1623 8.98189 33.5871 6.48732C33.7996 5.23934 33.9847 4.11888 34.1168 3.31041C34.1828 2.90617 34.2355 2.5799 34.2718 2.35467L34.3134 2.09546L34.3241 2.02808L34.3269 2.01089L34.3276 2.00654L34.3277 2.00544L34.3278 2.00517L34.0809 1.96582Z" fill="#58585A" stroke="white" stroke-width="0.5"/>
<path d="M44.6194 5.47094H44.4032L44.372 5.68496L44.2918 6.23695C43.3496 5.58141 42.1321 5.25635 40.7359 5.25635C37.3693 5.25635 34.6606 8.11801 34.6606 11.6221C34.6606 13.3453 35.0626 14.9346 35.9586 16.0991C36.8619 17.2732 38.2468 17.9879 40.1447 17.9879C41.0268 17.9879 41.8781 17.8319 42.6533 17.5038L42.6245 17.7019L42.5829 17.9879H42.8719H46.5612H46.7775L46.8086 17.7739L48.5562 5.75691L48.5978 5.47094H48.3088H44.6194ZM42.6242 11.0128C42.734 11.801 42.5129 12.6196 42.0835 13.2267C41.6543 13.8336 41.0387 14.2032 40.3627 14.1622C39.1427 14.0882 38.2675 12.9547 38.2675 11.402C38.2675 10.648 38.5611 9.9339 39.0193 9.43555C39.4766 8.93818 40.0828 8.6688 40.718 8.75815C41.7562 8.90419 42.4513 9.77021 42.6242 11.0128Z" fill="#58585A" stroke="white" stroke-width="0.5"/>
<path d="M55.9879 1.04008L56.035 0.75H55.7411H51.8576H51.645L51.6109 0.959922L48.8924 17.6978L48.8453 17.9879H49.1392H53.0227H53.2354L53.2694 17.778L53.5793 15.8705L54.911 14.4947L56.7903 17.5545L56.8634 17.6736H57.0033L61.9466 17.6736H62.4017L62.1576 17.2895L58.2128 11.0835L63.8738 5.23495L64.2841 4.81108H63.6942H58.5567H58.4466L58.3722 4.89233L54.7125 8.89294L55.9879 1.04008Z" fill="#58585A" stroke="white" stroke-width="0.5"/>
</g>
<g filter="url(#filter2_d_28_639)">
<path d="M22.0294 37C21.1426 37 20.3622 36.8285 19.6882 36.4856C19.0142 36.1427 18.488 35.6579 18.1096 35.0312C17.7312 34.3926 17.542 33.6536 17.542 32.814C17.542 31.6552 17.814 30.6147 18.3579 29.6924C18.9136 28.77 19.6704 28.0487 20.6282 27.5284C21.586 27.0082 22.6561 26.748 23.8386 26.748C24.7254 26.748 25.5059 26.9254 26.1799 27.2801C26.8539 27.623 27.3801 28.1138 27.7585 28.7523C28.1368 29.379 28.326 30.1121 28.326 30.9517C28.326 32.1105 28.0541 33.151 27.5101 34.0734C26.9662 34.9957 26.2153 35.717 25.2575 36.2373C24.2998 36.7457 23.2237 37 22.0294 37ZM22.6325 33.5945C23.1409 33.5945 23.543 33.3639 23.8386 32.9027C24.1342 32.4416 24.282 31.9272 24.282 31.3596C24.282 30.9576 24.1815 30.6561 23.9805 30.455C23.7913 30.254 23.543 30.1535 23.2355 30.1535C22.7271 30.1535 22.325 30.3841 22.0294 30.8453C21.7338 31.3064 21.586 31.8208 21.586 32.3884C21.586 32.7904 21.6806 33.0919 21.8698 33.2929C22.059 33.494 22.3132 33.5945 22.6325 33.5945Z" fill="white"/>
<path d="M37.3495 26.8012C38.3192 26.8012 39.0641 27.085 39.5844 27.6526C40.1047 28.2084 40.3648 28.977 40.3648 29.9584C40.3648 30.3131 40.3293 30.6856 40.2584 31.0758L39.2297 36.8758H35.3098L36.2499 31.5725C36.2735 31.3833 36.2853 31.2532 36.2853 31.1823C36.2853 30.8157 36.1789 30.5319 35.9661 30.3309C35.765 30.1299 35.4813 30.0294 35.1147 30.0294C34.689 30.0294 34.3284 30.1653 34.0327 30.4373C33.7371 30.7093 33.542 31.0817 33.4474 31.5547L32.5074 36.8758H28.5698L30.3435 26.8722H34.2811L34.015 28.3798C34.4052 27.9068 34.8841 27.5284 35.4517 27.2447C36.0193 26.949 36.6519 26.8012 37.3495 26.8012Z" fill="white"/>
<path d="M45.5132 37C44.6382 37 43.8578 36.8699 43.172 36.6097C42.498 36.3496 41.9659 35.989 41.5756 35.5278C41.1973 35.0548 41.0081 34.5168 41.0081 33.9137C41.0081 33.6891 41.0199 33.5235 41.0435 33.4171H44.8215C44.8097 33.7127 44.8924 33.9315 45.0698 34.0734C45.259 34.2153 45.5132 34.2862 45.8325 34.2862C46.0335 34.2862 46.205 34.2389 46.3469 34.1443C46.5006 34.0497 46.5774 33.9374 46.5774 33.8073C46.5774 33.6181 46.4592 33.4703 46.2227 33.3639C45.9862 33.2456 45.596 33.1156 45.0521 32.9737C44.3662 32.7845 43.7928 32.5894 43.3316 32.3884C42.8823 32.1873 42.4861 31.8917 42.1432 31.5015C41.8121 31.0995 41.6466 30.5792 41.6466 29.9407C41.6466 29.3494 41.824 28.8114 42.1787 28.3266C42.5453 27.83 43.0537 27.4457 43.7041 27.1737C44.3662 26.8899 45.1289 26.748 45.9921 26.748C46.9381 26.748 47.7481 26.9077 48.4221 27.2269C49.1079 27.5462 49.6223 27.9778 49.9652 28.5217C50.3081 29.0656 50.4677 29.6687 50.4441 30.3309H46.9499C46.9499 30.0589 46.8672 29.852 46.7016 29.7101C46.5361 29.5564 46.2937 29.4795 45.9744 29.4795C45.7734 29.4795 45.6019 29.5209 45.46 29.6037C45.33 29.6864 45.2649 29.7988 45.2649 29.9407C45.2649 30.118 45.3832 30.2658 45.6197 30.3841C45.8561 30.4905 46.2582 30.6324 46.8258 30.8098C47.5234 31.0108 48.0969 31.2118 48.5462 31.4128C49.0074 31.602 49.4094 31.8917 49.7524 32.2819C50.0953 32.6603 50.2667 33.1451 50.2667 33.7364C50.2667 34.7651 49.8233 35.5692 48.9365 36.1486C48.0614 36.7162 46.9204 37 45.5132 37Z" fill="white"/>
<path d="M63.5712 26.8722L61.7975 36.8758H57.8599L58.126 35.3682C57.7358 35.8411 57.2569 36.2254 56.6893 36.5211C56.1217 36.8049 55.4891 36.9467 54.7914 36.9467C53.8218 36.9467 53.0769 36.6689 52.5566 36.1131C52.0363 35.5455 51.7762 34.771 51.7762 33.7896C51.7762 33.4348 51.8116 33.0624 51.8826 32.6722L52.9113 26.8722H56.8312L55.8911 32.1755C55.8675 32.3647 55.8557 32.4948 55.8557 32.5657C55.8557 32.9323 55.9562 33.2161 56.1572 33.4171C56.37 33.6181 56.6597 33.7186 57.0263 33.7186C57.452 33.7186 57.8126 33.5826 58.1082 33.3107C58.4039 33.0387 58.599 32.6662 58.6936 32.1933L59.6336 26.8722H63.5712Z" fill="white"/>
<path d="M69.837 23.7505L67.5135 36.8758H63.5759L65.8995 23.7505H69.837Z" fill="white"/>
<path d="M80.8359 24.3181L81.9001 32.9559L85.9973 24.3181H90.1832L83.7447 36.8758H78.6542L76.65 24.3181H80.8359Z" fill="white"/>
<path d="M93.3173 33.896H97.1129L96.5808 36.8758H88.8475L91.0647 24.3181H95.0023L93.3173 33.896Z" fill="white"/>
</g>
<g filter="url(#filter3_d_28_639)">
<path d="M79.2689 10.8227C79.2689 11.2717 78.905 11.6356 78.456 11.6356C78.007 11.6356 77.6431 11.2717 77.6431 10.8227C77.6431 10.3737 78.007 10.0098 78.456 10.0098C78.905 10.0098 79.2689 10.3737 79.2689 10.8227Z" fill="#7A7A7A"/>
<path d="M81.9295 10.8227C81.9295 11.2717 81.5655 11.6356 81.1165 11.6356C80.6676 11.6356 80.3036 11.2717 80.3036 10.8227C80.3036 10.3737 80.6676 10.0098 81.1165 10.0098C81.5655 10.0098 81.9295 10.3737 81.9295 10.8227Z" fill="#7A7A7A"/>
<path d="M84.59 10.8227C84.59 11.2717 84.2261 11.6356 83.7771 11.6356C83.3281 11.6356 82.9641 11.2717 82.9641 10.8227C82.9641 10.3737 83.3281 10.0098 83.7771 10.0098C84.2261 10.0098 84.59 10.3737 84.59 10.8227Z" fill="#7A7A7A"/>
<path d="M95.084 4.24512H67.0006V17.0157H83.2594L89.0661 21.982V17.0157H95.084V4.24512Z" stroke="white" stroke-width="3" stroke-linecap="round" stroke-linejoin="round"/>
<path d="M78.9731 10.5268C78.9731 10.9758 78.6091 11.3398 78.1601 11.3398C77.7111 11.3398 77.3472 10.9758 77.3472 10.5268C77.3472 10.0778 77.7111 9.71387 78.1601 9.71387C78.6091 9.71387 78.9731 10.0778 78.9731 10.5268Z" fill="white"/>
<path d="M81.6336 10.5268C81.6336 10.9758 81.2696 11.3398 80.8206 11.3398C80.3717 11.3398 80.0077 10.9758 80.0077 10.5268C80.0077 10.0778 80.3717 9.71387 80.8206 9.71387C81.2696 9.71387 81.6336 10.0778 81.6336 10.5268Z" fill="white"/>
<path d="M84.2941 10.5268C84.2941 10.9758 83.9302 11.3398 83.4812 11.3398C83.0322 11.3398 82.6682 10.9758 82.6682 10.5268C82.6682 10.0778 83.0322 9.71387 83.4812 9.71387C83.9302 9.71387 84.2941 10.0778 84.2941 10.5268Z" fill="white"/>
</g>
<defs>
<filter id="filter0_d_28_639" x="0" y="17.3652" width="20.8799" height="20.5107" filterUnits="userSpaceOnUse" color-interpolation-filters="sRGB">
<feFlood flood-opacity="0" result="BackgroundImageFix"/>
<feColorMatrix in="SourceAlpha" type="matrix" values="0 0 0 0 0 0 0 0 0 0 0 0 0 0 0 0 0 0 127 0" result="hardAlpha"/>
<feOffset dx="1" dy="1"/>
<feComposite in2="hardAlpha" operator="out"/>
<feColorMatrix type="matrix" values="0 0 0 0 0.3375 0 0 0 0 0.3375 0 0 0 0 0.3375 0 0 0 1 0"/>
<feBlend mode="normal" in2="BackgroundImageFix" result="effect1_dropShadow_28_639"/>
<feBlend mode="normal" in="SourceGraphic" in2="effect1_dropShadow_28_639" result="shape"/>
</filter>
<filter id="filter1_d_28_639" x="20.3467" y="0.5" width="45.0273" height="18.3545" filterUnits="userSpaceOnUse" color-interpolation-filters="sRGB">
<feFlood flood-opacity="0" result="BackgroundImageFix"/>
<feColorMatrix in="SourceAlpha" type="matrix" values="0 0 0 0 0 0 0 0 0 0 0 0 0 0 0 0 0 0 127 0" result="hardAlpha"/>
<feOffset dx="0.5" dy="0.5"/>
<feComposite in2="hardAlpha" operator="out"/>
<feColorMatrix type="matrix" values="0 0 0 0 0.478431 0 0 0 0 0.478431 0 0 0 0 0.478431 0 0 0 1 0"/>
<feBlend mode="normal" in2="BackgroundImageFix" result="effect1_dropShadow_28_639"/>
<feBlend mode="normal" in="SourceGraphic" in2="effect1_dropShadow_28_639" result="shape"/>
</filter>
<filter id="filter2_d_28_639" x="17.542" y="23.7505" width="80.5708" height="14.2495" filterUnits="userSpaceOnUse" color-interpolation-filters="sRGB">
<feFlood flood-opacity="0" result="BackgroundImageFix"/>
<feColorMatrix in="SourceAlpha" type="matrix" values="0 0 0 0 0 0 0 0 0 0 0 0 0 0 0 0 0 0 127 0" result="hardAlpha"/>
<feOffset dx="1" dy="1"/>
<feComposite in2="hardAlpha" operator="out"/>
<feColorMatrix type="matrix" values="0 0 0 0 0.3375 0 0 0 0 0.3375 0 0 0 0 0.3375 0 0 0 1 0"/>
<feBlend mode="normal" in2="BackgroundImageFix" result="effect1_dropShadow_28_639"/>
<feBlend mode="normal" in="SourceGraphic" in2="effect1_dropShadow_28_639" result="shape"/>
</filter>
<filter id="filter3_d_28_639" x="65.5005" y="2.74512" width="32.0835" height="21.7368" filterUnits="userSpaceOnUse" color-interpolation-filters="sRGB">
<feFlood flood-opacity="0" result="BackgroundImageFix"/>
<feColorMatrix in="SourceAlpha" type="matrix" values="0 0 0 0 0 0 0 0 0 0 0 0 0 0 0 0 0 0 127 0" result="hardAlpha"/>
<feOffset dx="1" dy="1"/>
<feComposite in2="hardAlpha" operator="out"/>
<feColorMatrix type="matrix" values="0 0 0 0 0.478431 0 0 0 0 0.478431 0 0 0 0 0.478431 0 0 0 1 0"/>
<feBlend mode="normal" in2="BackgroundImageFix" result="effect1_dropShadow_28_639"/>
<feBlend mode="normal" in="SourceGraphic" in2="effect1_dropShadow_28_639" result="shape"/>
</filter>
</defs>
</svg>
