<svg width="120" height="93" viewBox="0 0 120 93" fill="none" xmlns="http://www.w3.org/2000/svg">
<g filter="url(#filter0_d_45_11)">
<path d="M14.506 45.3652H19.5145L16.0086 64.8758H11L14.506 45.3652Z" fill="#F1592A"/>
<path d="M25.7069 45.3652H30.8801L15.2743 63.6359L17.0103 55.3707L25.7069 45.3652Z" fill="#F1592A"/>
<path d="M22.4726 64.5095L28.1089 64.5095L21.9378 55.3707L18.7614 58.4633L22.4726 64.5095Z" fill="#F1592A"/>
</g>
<path d="M41.2945 29.7156H41.0793L41.0473 29.9283L41.2945 29.9656C41.0473 29.9283 41.0473 29.9283 41.0473 29.9284L41.0472 29.9288L41.047 29.9301L41.0461 29.9357L41.0428 29.9578L41.0298 30.044L40.9798 30.3721C40.9366 30.6553 40.8745 31.0608 40.7986 31.5501C40.647 32.5288 40.4408 33.8425 40.2225 35.1828C40.0041 36.5234 39.7739 37.8894 39.5741 38.9732C39.4742 39.5153 39.3822 39.985 39.3034 40.3448C39.2221 40.7165 39.1604 40.9428 39.1249 41.0211C38.8367 41.6582 38.329 42.269 37.508 42.269C36.9607 42.269 36.3923 41.8779 35.9307 41.428C35.7067 41.2096 35.5209 40.9904 35.391 40.8253C35.3262 40.743 35.2756 40.6747 35.2416 40.6274C35.2246 40.6038 35.2118 40.5854 35.2033 40.5732L35.1941 40.5597L35.192 40.5566L35.1916 40.5561L35.1916 40.5561L35.1916 40.556L35.1916 40.556L35.0589 40.3574L34.8544 40.4811L31.8706 42.286L31.6732 42.4054L31.7764 42.6117C32.3047 43.6682 33.2853 44.5722 34.4103 45.1934C35.5356 45.8148 36.831 46.1675 38.0089 46.0947C40.3299 45.951 42.6695 44.4608 43.1894 42.0349C43.6275 39.9906 44.1623 36.9816 44.5871 34.4871C44.7996 33.2391 44.9847 32.1186 45.1168 31.3102C45.1828 30.9059 45.2355 30.5797 45.2718 30.3544L45.3134 30.0952L45.3241 30.0278L45.3269 30.0106L45.3276 30.0063L45.3277 30.0052L45.3278 30.0049L45.0809 29.9656L45.3278 30.0048L45.3738 29.7156H45.0809H41.2945Z" fill="#58585A" stroke="white" stroke-width="0.5"/>
<path d="M55.6199 33.4709H55.4037L55.3725 33.685L55.2923 34.237C54.3501 33.5814 53.1326 33.2563 51.7364 33.2563C48.3698 33.2563 45.6611 36.118 45.6611 39.6221C45.6611 41.3453 46.0631 42.9346 46.9591 44.0991C47.8624 45.2732 49.2473 45.9879 51.1452 45.9879C52.0273 45.9879 52.8785 45.8319 53.6538 45.5038L53.6249 45.7019L53.5834 45.9879H53.8723H57.5617H57.778L57.8091 45.7739L59.5567 33.7569L59.5983 33.4709H59.3093H55.6199ZM53.6247 39.0128C53.7344 39.801 53.5134 40.6196 53.084 41.2267C52.6548 41.8336 52.0392 42.2032 51.3632 42.1622C50.1432 42.0882 49.2679 40.9547 49.2679 39.402C49.2679 38.648 49.5616 37.9339 50.0198 37.4356C50.477 36.9382 51.0832 36.6688 51.7185 36.7582C52.7567 36.9042 53.4518 37.7702 53.6247 39.0128Z" fill="#58585A" stroke="white" stroke-width="0.5"/>
<path d="M62.8576 28.75H62.645L62.6109 28.9599L59.8924 45.6978L59.8453 45.9879H60.1392H64.0227H64.2354L64.2694 45.778L64.5793 43.8705L65.911 42.4947L67.7903 45.5545L67.8634 45.6736H68.0033L72.9466 45.6736H73.4017L73.1576 45.2895L69.2128 39.0835L74.8738 33.235L75.2841 32.8111H74.6942H69.5567H69.4466L69.3722 32.8923L65.7125 36.8929L66.9879 29.0401L67.035 28.75H66.7411H62.8576Z" fill="#58585A" stroke="white" stroke-width="0.5"/>
<g filter="url(#filter1_d_45_11)">
<path d="M33.0294 65C32.1426 65 31.3622 64.8285 30.6882 64.4856C30.0142 64.1427 29.488 63.6579 29.1096 63.0312C28.7312 62.3926 28.542 61.6536 28.542 60.814C28.542 59.6552 28.814 58.6147 29.3579 57.6924C29.9136 56.77 30.6704 56.0487 31.6282 55.5284C32.586 55.0082 33.6561 54.748 34.8386 54.748C35.7254 54.748 36.5059 54.9254 37.1799 55.2801C37.8539 55.623 38.3801 56.1138 38.7585 56.7523C39.1368 57.379 39.326 58.1121 39.326 58.9517C39.326 60.1105 39.0541 61.151 38.5101 62.0734C37.9662 62.9957 37.2153 63.717 36.2575 64.2373C35.2998 64.7457 34.2237 65 33.0294 65ZM33.6325 61.5945C34.1409 61.5945 34.543 61.3639 34.8386 60.9027C35.1342 60.4416 35.282 59.9272 35.282 59.3596C35.282 58.9576 35.1815 58.6561 34.9805 58.455C34.7913 58.254 34.543 58.1535 34.2355 58.1535C33.7271 58.1535 33.325 58.3841 33.0294 58.8453C32.7338 59.3064 32.586 59.8208 32.586 60.3884C32.586 60.7904 32.6806 61.0919 32.8698 61.2929C33.059 61.494 33.3132 61.5945 33.6325 61.5945Z" fill="white"/>
<path d="M48.3495 54.8012C49.3192 54.8012 50.0641 55.085 50.5844 55.6526C51.1047 56.2084 51.3648 56.977 51.3648 57.9584C51.3648 58.3131 51.3293 58.6856 51.2584 59.0758L50.2297 64.8758H46.3098L47.2499 59.5725C47.2735 59.3833 47.2853 59.2532 47.2853 59.1823C47.2853 58.8157 47.1789 58.5319 46.9661 58.3309C46.765 58.1299 46.4813 58.0294 46.1147 58.0294C45.689 58.0294 45.3284 58.1653 45.0327 58.4373C44.7371 58.7093 44.542 59.0817 44.4474 59.5547L43.5074 64.8758H39.5698L41.3435 54.8722H45.2811L45.015 56.3798C45.4052 55.9068 45.8841 55.5284 46.4517 55.2447C47.0193 54.949 47.6519 54.8012 48.3495 54.8012Z" fill="white"/>
<path d="M56.5132 65C55.6382 65 54.8578 64.8699 54.172 64.6097C53.498 64.3496 52.9659 63.989 52.5756 63.5278C52.1973 63.0548 52.0081 62.5168 52.0081 61.9137C52.0081 61.6891 52.0199 61.5235 52.0435 61.4171H55.8215C55.8097 61.7127 55.8924 61.9315 56.0698 62.0734C56.259 62.2153 56.5132 62.2862 56.8325 62.2862C57.0335 62.2862 57.205 62.2389 57.3469 62.1443C57.5006 62.0497 57.5774 61.9374 57.5774 61.8073C57.5774 61.6181 57.4592 61.4703 57.2227 61.3639C56.9862 61.2456 56.596 61.1156 56.0521 60.9737C55.3662 60.7845 54.7928 60.5894 54.3316 60.3884C53.8823 60.1873 53.4861 59.8917 53.1432 59.5015C52.8121 59.0995 52.6466 58.5792 52.6466 57.9407C52.6466 57.3494 52.824 56.8114 53.1787 56.3266C53.5453 55.83 54.0537 55.4457 54.7041 55.1737C55.3662 54.8899 56.1289 54.748 56.9921 54.748C57.9381 54.748 58.7481 54.9077 59.4221 55.2269C60.1079 55.5462 60.6223 55.9778 60.9652 56.5217C61.3081 57.0656 61.4677 57.6687 61.4441 58.3309H57.9499C57.9499 58.0589 57.8672 57.852 57.7016 57.7101C57.5361 57.5564 57.2937 57.4795 56.9744 57.4795C56.7734 57.4795 56.6019 57.5209 56.46 57.6037C56.33 57.6864 56.2649 57.7988 56.2649 57.9407C56.2649 58.118 56.3832 58.2658 56.6197 58.3841C56.8561 58.4905 57.2582 58.6324 57.8258 58.8098C58.5234 59.0108 59.0969 59.2118 59.5462 59.4128C60.0074 59.602 60.4094 59.8917 60.7524 60.2819C61.0953 60.6603 61.2667 61.1451 61.2667 61.7364C61.2667 62.7651 60.8233 63.5692 59.9365 64.1486C59.0614 64.7162 57.9204 65 56.5132 65Z" fill="white"/>
<path d="M74.5712 54.8722L72.7975 64.8758H68.8599L69.126 63.3682C68.7358 63.8411 68.2569 64.2254 67.6893 64.5211C67.1217 64.8049 66.4891 64.9467 65.7914 64.9467C64.8218 64.9467 64.0769 64.6689 63.5566 64.1131C63.0363 63.5455 62.7762 62.771 62.7762 61.7896C62.7762 61.4348 62.8116 61.0624 62.8826 60.6722L63.9113 54.8722H67.8312L66.8911 60.1755C66.8675 60.3647 66.8557 60.4948 66.8557 60.5657C66.8557 60.9323 66.9562 61.2161 67.1572 61.4171C67.37 61.6181 67.6597 61.7186 68.0263 61.7186C68.452 61.7186 68.8126 61.5826 69.1082 61.3107C69.4039 61.0387 69.599 60.6662 69.6936 60.1933L70.6336 54.8722H74.5712Z" fill="white"/>
<path d="M80.837 51.7505L78.5135 64.8758H74.5759L76.8995 51.7505H80.837Z" fill="white"/>
<path d="M91.8359 52.3181L92.9001 60.9559L96.9973 52.3181H101.183L94.7447 64.8758H89.6542L87.65 52.3181H91.8359Z" fill="white"/>
<path d="M104.317 61.896H108.113L107.581 64.8758H99.8476L102.065 52.3181H106.002L104.317 61.896Z" fill="white"/>
</g>
<g filter="url(#filter2_d_45_11)">
<path d="M90.2689 38.8227C90.2689 39.2717 89.905 39.6356 89.456 39.6356C89.007 39.6356 88.6431 39.2717 88.6431 38.8227C88.6431 38.3737 89.007 38.0098 89.456 38.0098C89.905 38.0098 90.2689 38.3737 90.2689 38.8227Z" fill="#7A7A7A"/>
<path d="M92.9295 38.8227C92.9295 39.2717 92.5655 39.6356 92.1165 39.6356C91.6676 39.6356 91.3036 39.2717 91.3036 38.8227C91.3036 38.3737 91.6676 38.0098 92.1165 38.0098C92.5655 38.0098 92.9295 38.3737 92.9295 38.8227Z" fill="#7A7A7A"/>
<path d="M95.59 38.8227C95.59 39.2717 95.2261 39.6356 94.7771 39.6356C94.3281 39.6356 93.9641 39.2717 93.9641 38.8227C93.9641 38.3737 94.3281 38.0098 94.7771 38.0098C95.2261 38.0098 95.59 38.3737 95.59 38.8227Z" fill="#7A7A7A"/>
<path d="M106.084 32.2451H78.0006V45.0157H94.2594L100.066 49.982V45.0157H106.084V32.2451Z" stroke="white" stroke-linecap="round" stroke-linejoin="round"/>
<path d="M89.9731 38.5271C89.9731 38.976 89.6091 39.34 89.1601 39.34C88.7111 39.34 88.3472 38.976 88.3472 38.5271C88.3472 38.0781 88.7111 37.7141 89.1601 37.7141C89.6091 37.7141 89.9731 38.0781 89.9731 38.5271Z" fill="white"/>
<path d="M92.6336 38.5271C92.6336 38.976 92.2696 39.34 91.8206 39.34C91.3717 39.34 91.0077 38.976 91.0077 38.5271C91.0077 38.0781 91.3717 37.7141 91.8206 37.7141C92.2696 37.7141 92.6336 38.0781 92.6336 38.5271Z" fill="white"/>
<path d="M95.2941 38.5271C95.2941 38.976 94.9302 39.34 94.4812 39.34C94.0322 39.34 93.6682 38.976 93.6682 38.5271C93.6682 38.0781 94.0322 37.7141 94.4812 37.7141C94.9302 37.7141 95.2941 38.0781 95.2941 38.5271Z" fill="white"/>
</g>
<defs>
<filter id="filter0_d_45_11" x="11" y="45.3652" width="20.8799" height="20.5105" filterUnits="userSpaceOnUse" color-interpolation-filters="sRGB">
<feFlood flood-opacity="0" result="BackgroundImageFix"/>
<feColorMatrix in="SourceAlpha" type="matrix" values="0 0 0 0 0 0 0 0 0 0 0 0 0 0 0 0 0 0 127 0" result="hardAlpha"/>
<feOffset dx="1" dy="1"/>
<feComposite in2="hardAlpha" operator="out"/>
<feColorMatrix type="matrix" values="0 0 0 0 0.3375 0 0 0 0 0.3375 0 0 0 0 0.3375 0 0 0 1 0"/>
<feBlend mode="normal" in2="BackgroundImageFix" result="effect1_dropShadow_45_11"/>
<feBlend mode="normal" in="SourceGraphic" in2="effect1_dropShadow_45_11" result="shape"/>
</filter>
<filter id="filter1_d_45_11" x="28.542" y="51.7505" width="80.5708" height="14.2495" filterUnits="userSpaceOnUse" color-interpolation-filters="sRGB">
<feFlood flood-opacity="0" result="BackgroundImageFix"/>
<feColorMatrix in="SourceAlpha" type="matrix" values="0 0 0 0 0 0 0 0 0 0 0 0 0 0 0 0 0 0 127 0" result="hardAlpha"/>
<feOffset dx="1" dy="1"/>
<feComposite in2="hardAlpha" operator="out"/>
<feColorMatrix type="matrix" values="0 0 0 0 0.3375 0 0 0 0 0.3375 0 0 0 0 0.3375 0 0 0 1 0"/>
<feBlend mode="normal" in2="BackgroundImageFix" result="effect1_dropShadow_45_11"/>
<feBlend mode="normal" in="SourceGraphic" in2="effect1_dropShadow_45_11" result="shape"/>
</filter>
<filter id="filter2_d_45_11" x="77.5005" y="31.7451" width="29.7835" height="19.3368" filterUnits="userSpaceOnUse" color-interpolation-filters="sRGB">
<feFlood flood-opacity="0" result="BackgroundImageFix"/>
<feColorMatrix in="SourceAlpha" type="matrix" values="0 0 0 0 0 0 0 0 0 0 0 0 0 0 0 0 0 0 127 0" result="hardAlpha"/>
<feOffset dx="0.7" dy="0.6"/>
<feComposite in2="hardAlpha" operator="out"/>
<feColorMatrix type="matrix" values="0 0 0 0 0.478431 0 0 0 0 0.478431 0 0 0 0 0.478431 0 0 0 1 0"/>
<feBlend mode="normal" in2="BackgroundImageFix" result="effect1_dropShadow_45_11"/>
<feBlend mode="normal" in="SourceGraphic" in2="effect1_dropShadow_45_11" result="shape"/>
</filter>
</defs>
</svg>
