<svg width="134" height="39" viewBox="0 0 134 39" fill="none" xmlns="http://www.w3.org/2000/svg">
<path d="M27 13.5C27 20.9558 13.5 38.5 13.5 38.5C13.5 38.5 0 20.9558 0 13.5C0 6.04416 6.04416 0 13.5 0C20.9558 0 27 6.04416 27 13.5Z" fill="#4B642B"/>
<path fill-rule="evenodd" clip-rule="evenodd" d="M16.645 3.62969C16.1944 3.37206 15.6887 3.25 15.1448 3.25H12.1928C11.1668 3.25 10.129 3.72813 9.50518 4.59269C9.48415 4.61881 9.46352 4.64525 9.4433 4.672L8.1293 6.37637L7.67312 6.98444L7.67199 6.98556C6.97907 7.90442 6.60435 9.024 6.60455 10.1748C6.60475 11.3257 6.97987 12.4451 7.67312 13.3637L7.67649 13.3683L10.21 16.5824L6.09587 21.8463C6.00399 21.9638 5.9364 22.0984 5.89704 22.2423C5.85768 22.3862 5.84733 22.5365 5.8666 22.6844C5.88586 22.8323 5.93435 22.9749 6.00925 23.104C6.08415 23.233 6.18396 23.3458 6.30287 23.4359L8.76605 25.3017C9.00127 25.4798 9.29704 25.5584 9.58964 25.5205C9.88225 25.4826 10.1483 25.3313 10.3304 25.0992L13.6176 20.908L16.8751 25.0609C16.9702 25.1822 17.0893 25.2827 17.2249 25.3561C17.3604 25.4295 17.5097 25.4742 17.6633 25.4875C17.8169 25.5008 17.9716 25.4823 18.1177 25.4334C18.2639 25.3844 18.3985 25.3059 18.5131 25.2027L20.8002 23.1428C21.0114 22.9526 21.1427 22.6895 21.1679 22.4064C21.193 22.1233 21.1101 21.8412 20.9357 21.6168L17.0269 16.5858L18.643 14.5H17.2199L16.3103 15.6739L14.3123 13.1483L17.7244 8.74056C18.0681 8.30906 18.2997 7.79933 18.3989 7.25669L18.6644 7.6105L18.6661 7.61275C19.0395 8.10788 19.2979 8.68008 19.4222 9.28767C19.5466 9.89527 19.5338 10.523 19.3849 11.125H20.5358C20.6762 10.3973 20.6622 9.64829 20.4946 8.92639C20.3271 8.20449 20.0098 7.52583 19.5632 6.93438L19.1065 6.32462L19.1014 6.319L17.7902 4.61856L17.7841 4.61013L17.7908 4.60506C17.4674 4.15281 17.0303 3.84963 16.645 3.62969ZM16.1854 8.89019L13.5979 12.2326L11.0104 8.89019C11.3561 8.69662 11.7461 8.59621 12.1422 8.59881H15.0936C15.4666 8.59881 15.8491 8.70738 16.1854 8.89019ZM16.8931 5.2975C17.1794 5.6891 17.3327 6.16217 17.3305 6.64729C17.3283 7.13241 17.1706 7.60404 16.8807 7.993C16.3553 7.67238 15.7304 7.47381 15.0936 7.47381H12.1422C11.5105 7.47381 10.867 7.64256 10.3191 7.99356C10.0508 7.60151 9.90674 7.13776 9.90568 6.66269C9.90568 6.20425 10.0497 5.74469 10.3405 5.3515L10.4052 5.26712L10.4108 5.25925C10.8057 4.70687 11.4942 4.375 12.1934 4.375H15.1454C15.5166 4.375 15.826 4.45656 16.0876 4.60619C16.3975 4.78337 16.6613 4.97744 16.8458 5.21819L16.8374 5.22438L16.8931 5.2975ZM6.98237 22.5392L10.9272 17.4914L12.9021 19.9973L9.44499 24.4051L6.98237 22.5392ZM8.84087 7.30225C8.94021 7.84562 9.17034 8.35665 9.51137 8.79119L13.1766 13.5258L15.8738 16.9356L20.0476 22.3075L17.7604 24.3663L14.0603 19.6491L8.56693 12.6798C8.02324 11.9566 7.72948 11.0762 7.72999 10.1714C7.7305 9.2666 8.02524 8.38653 8.56974 7.66394L8.57143 7.66169L8.84087 7.30225Z" fill="white"/>
<path d="M17.2199 14.5H18.643L20.5358 11.125H19.3849L17.2199 14.5Z" fill="white"/>
<path d="M36.874 16.252V5.35938H39.8281V16.252C39.8281 17.2904 39.6025 18.182 39.1514 18.9268C38.7002 19.6644 38.0843 20.2301 37.3037 20.624C36.5231 21.0179 35.6423 21.2148 34.6611 21.2148C33.6514 21.2148 32.7562 21.0465 31.9756 20.71C31.195 20.3662 30.5827 19.8434 30.1387 19.1416C29.7018 18.4398 29.4834 17.5482 29.4834 16.4668H32.4482C32.4482 17.054 32.5378 17.5267 32.7168 17.8848C32.8958 18.2428 33.1501 18.5007 33.4795 18.6582C33.8161 18.8158 34.21 18.8945 34.6611 18.8945C35.098 18.8945 35.4811 18.7943 35.8105 18.5938C36.1471 18.3861 36.4085 18.0853 36.5947 17.6914C36.7809 17.2975 36.874 16.8177 36.874 16.252Z" fill="black"/>
<path d="M51.6982 18.5293V13.1689C51.6982 12.7751 51.6302 12.4349 51.4941 12.1484C51.3581 11.862 51.1504 11.64 50.8711 11.4824C50.5918 11.3249 50.2373 11.2461 49.8076 11.2461C49.4281 11.2461 49.0951 11.3105 48.8086 11.4395C48.5293 11.5684 48.3145 11.751 48.1641 11.9873C48.0137 12.2165 47.9385 12.4814 47.9385 12.7822H45.0918C45.0918 12.3024 45.2064 11.8477 45.4355 11.418C45.6647 10.9811 45.9906 10.5944 46.4131 10.2578C46.8428 9.91406 47.3548 9.64551 47.9492 9.45215C48.5508 9.25879 49.224 9.16211 49.9688 9.16211C50.8496 9.16211 51.6338 9.3125 52.3213 9.61328C53.016 9.9069 53.5602 10.3509 53.9541 10.9453C54.3551 11.5397 54.5557 12.2881 54.5557 13.1904V18.2607C54.5557 18.8408 54.5915 19.3385 54.6631 19.7539C54.7419 20.1621 54.8564 20.5166 55.0068 20.8174V21H52.1172C51.9811 20.7064 51.8773 20.334 51.8057 19.8828C51.734 19.4245 51.6982 18.9733 51.6982 18.5293ZM52.0957 13.9209L52.1172 15.6074H50.3232C49.8792 15.6074 49.4889 15.654 49.1523 15.7471C48.8158 15.833 48.54 15.9619 48.3252 16.1338C48.1104 16.2985 47.9492 16.499 47.8418 16.7354C47.7344 16.9645 47.6807 17.2259 47.6807 17.5195C47.6807 17.806 47.7451 18.0638 47.874 18.293C48.0101 18.5221 48.2035 18.7048 48.4541 18.8408C48.7119 18.9697 49.0127 19.0342 49.3564 19.0342C49.8577 19.0342 50.2946 18.9339 50.667 18.7334C51.0394 18.5257 51.3294 18.2751 51.5371 17.9814C51.7448 17.6878 51.8558 17.4085 51.8701 17.1436L52.6865 18.3682C52.5863 18.6618 52.4359 18.9733 52.2354 19.3027C52.0348 19.6322 51.777 19.9401 51.4619 20.2266C51.1468 20.513 50.7673 20.7493 50.3232 20.9355C49.8792 21.1217 49.3636 21.2148 48.7764 21.2148C48.0244 21.2148 47.3512 21.0645 46.7568 20.7637C46.1624 20.4629 45.6934 20.0511 45.3496 19.5283C45.0059 19.0055 44.834 18.4111 44.834 17.7451C44.834 17.1292 44.9486 16.585 45.1777 16.1123C45.4069 15.6396 45.7471 15.2422 46.1982 14.9199C46.6494 14.5905 47.208 14.3434 47.874 14.1787C48.5472 14.0068 49.3171 13.9209 50.1836 13.9209H52.0957Z" fill="black"/>
<path d="M62.6982 4.48926V21H59.8623V4.48926H62.6982ZM69.9814 9.37695L64.9219 15.0596L62.1826 17.8418L61.2803 15.6396L63.3965 12.9756L66.5547 9.37695H69.9814ZM67.0811 21L63.4824 15.5859L65.373 13.749L70.3682 21H67.0811Z" fill="black"/>
<path d="M79.7354 9.37695V11.418H73.0752V9.37695H79.7354ZM74.8584 6.51953H77.7051V17.6484C77.7051 17.9922 77.7516 18.2572 77.8447 18.4434C77.9378 18.6296 78.0775 18.7549 78.2637 18.8193C78.4499 18.8838 78.6719 18.916 78.9297 18.916C79.1159 18.916 79.2878 18.9053 79.4453 18.8838C79.6029 18.8623 79.7354 18.8408 79.8428 18.8193L79.8535 20.9463C79.6172 21.0251 79.3486 21.0895 79.0479 21.1396C78.7542 21.1898 78.4212 21.2148 78.0488 21.2148C77.4115 21.2148 76.8529 21.1074 76.373 20.8926C75.8932 20.6706 75.5208 20.3161 75.2559 19.8291C74.9909 19.335 74.8584 18.6833 74.8584 17.874V6.51953Z" fill="black"/>
<path d="M87.2119 11.751V21H84.376V9.37695H87.0615L87.2119 11.751ZM90.7461 9.30176L90.7031 11.9443C90.5456 11.9157 90.3665 11.8942 90.166 11.8799C89.9727 11.8656 89.79 11.8584 89.6182 11.8584C89.1813 11.8584 88.7982 11.9193 88.4688 12.041C88.1393 12.1556 87.8636 12.3239 87.6416 12.5459C87.4268 12.7679 87.262 13.04 87.1475 13.3623C87.0329 13.6774 86.9684 14.0355 86.9541 14.4365L86.3418 14.3613C86.3418 13.6237 86.417 12.9398 86.5674 12.3096C86.7178 11.6794 86.9362 11.1279 87.2227 10.6553C87.5091 10.1826 87.8672 9.81738 88.2969 9.55957C88.7337 9.2946 89.235 9.16211 89.8008 9.16211C89.9583 9.16211 90.1266 9.17643 90.3057 9.20508C90.4919 9.22656 90.6387 9.25879 90.7461 9.30176Z" fill="black"/>
<path d="M101.091 18.5293V13.1689C101.091 12.7751 101.023 12.4349 100.887 12.1484C100.751 11.862 100.543 11.64 100.264 11.4824C99.9844 11.3249 99.6299 11.2461 99.2002 11.2461C98.8206 11.2461 98.4876 11.3105 98.2012 11.4395C97.9219 11.5684 97.707 11.751 97.5566 11.9873C97.4062 12.2165 97.3311 12.4814 97.3311 12.7822H94.4844C94.4844 12.3024 94.599 11.8477 94.8281 11.418C95.0573 10.9811 95.3831 10.5944 95.8057 10.2578C96.2354 9.91406 96.7474 9.64551 97.3418 9.45215C97.9434 9.25879 98.6165 9.16211 99.3613 9.16211C100.242 9.16211 101.026 9.3125 101.714 9.61328C102.409 9.9069 102.953 10.3509 103.347 10.9453C103.748 11.5397 103.948 12.2881 103.948 13.1904V18.2607C103.948 18.8408 103.984 19.3385 104.056 19.7539C104.134 20.1621 104.249 20.5166 104.399 20.8174V21H101.51C101.374 20.7064 101.27 20.334 101.198 19.8828C101.127 19.4245 101.091 18.9733 101.091 18.5293ZM101.488 13.9209L101.51 15.6074H99.7158C99.2718 15.6074 98.8815 15.654 98.5449 15.7471C98.2083 15.833 97.9326 15.9619 97.7178 16.1338C97.5029 16.2985 97.3418 16.499 97.2344 16.7354C97.127 16.9645 97.0732 17.2259 97.0732 17.5195C97.0732 17.806 97.1377 18.0638 97.2666 18.293C97.4027 18.5221 97.596 18.7048 97.8467 18.8408C98.1045 18.9697 98.4053 19.0342 98.749 19.0342C99.2503 19.0342 99.6872 18.9339 100.06 18.7334C100.432 18.5257 100.722 18.2751 100.93 17.9814C101.137 17.6878 101.248 17.4085 101.263 17.1436L102.079 18.3682C101.979 18.6618 101.828 18.9733 101.628 19.3027C101.427 19.6322 101.17 19.9401 100.854 20.2266C100.539 20.513 100.16 20.7493 99.7158 20.9355C99.2718 21.1217 98.7562 21.2148 98.1689 21.2148C97.417 21.2148 96.7438 21.0645 96.1494 20.7637C95.555 20.4629 95.0859 20.0511 94.7422 19.5283C94.3984 19.0055 94.2266 18.4111 94.2266 17.7451C94.2266 17.1292 94.3411 16.585 94.5703 16.1123C94.7995 15.6396 95.1396 15.2422 95.5908 14.9199C96.042 14.5905 96.6006 14.3434 97.2666 14.1787C97.9398 14.0068 98.7096 13.9209 99.5762 13.9209H101.488Z" fill="black"/>
<path d="M114.024 18.9805C114.425 18.9805 114.784 18.9017 115.099 18.7441C115.414 18.5866 115.664 18.3646 115.851 18.0781C116.044 17.7917 116.148 17.4587 116.162 17.0791H118.837C118.823 17.8669 118.601 18.5723 118.171 19.1953C117.741 19.8184 117.168 20.3125 116.452 20.6777C115.743 21.0358 114.948 21.2148 114.067 21.2148C113.172 21.2148 112.392 21.0645 111.726 20.7637C111.06 20.4629 110.505 20.0439 110.061 19.5068C109.624 18.9697 109.294 18.3467 109.072 17.6377C108.857 16.9287 108.75 16.1696 108.75 15.3604V15.0166C108.75 14.2074 108.857 13.4482 109.072 12.7393C109.294 12.0303 109.624 11.4072 110.061 10.8701C110.505 10.333 111.06 9.91406 111.726 9.61328C112.392 9.3125 113.169 9.16211 114.057 9.16211C114.995 9.16211 115.818 9.34473 116.527 9.70996C117.243 10.0752 117.802 10.5908 118.203 11.2568C118.611 11.9229 118.823 12.707 118.837 13.6094H116.162C116.148 13.194 116.055 12.8216 115.883 12.4922C115.711 12.1628 115.467 11.8978 115.152 11.6973C114.837 11.4967 114.454 11.3965 114.003 11.3965C113.523 11.3965 113.122 11.4967 112.8 11.6973C112.485 11.8978 112.238 12.1735 112.059 12.5244C111.887 12.8682 111.765 13.2549 111.693 13.6846C111.629 14.1071 111.597 14.5511 111.597 15.0166V15.3604C111.597 15.833 111.629 16.2842 111.693 16.7139C111.765 17.1436 111.887 17.5303 112.059 17.874C112.238 18.2106 112.485 18.4792 112.8 18.6797C113.122 18.8802 113.53 18.9805 114.024 18.9805Z" fill="black"/>
<path d="M126.313 4.48926V21H123.478V4.48926H126.313ZM133.597 9.37695L128.537 15.0596L125.798 17.8418L124.896 15.6396L127.012 12.9756L130.17 9.37695H133.597ZM130.696 21L127.098 15.5859L128.988 13.749L133.983 21H130.696Z" fill="black"/>
<path d="M29.7073 28H29.1533L30.7556 23.6364H31.301L32.9033 28H32.3493L31.0454 24.3267H31.0113L29.7073 28ZM29.9118 26.2955H32.1448V26.7642H29.9118V26.2955Z" fill="#FF0202"/>
<path d="M33.5148 29.2273V24.7273H34.0006V25.2472H34.0603C34.0972 25.1903 34.1483 25.1179 34.2137 25.0298C34.2805 24.9403 34.3756 24.8608 34.4992 24.7912C34.6242 24.7202 34.7932 24.6847 35.0063 24.6847C35.2819 24.6847 35.5248 24.7536 35.735 24.8913C35.9452 25.0291 36.1093 25.2244 36.2272 25.4773C36.3451 25.7301 36.404 26.0284 36.404 26.3722C36.404 26.7187 36.3451 27.0192 36.2272 27.2734C36.1093 27.5263 35.9459 27.7223 35.7371 27.8615C35.5283 27.9993 35.2876 28.0682 35.0148 28.0682C34.8046 28.0682 34.6363 28.0334 34.5099 27.9638C34.3834 27.8928 34.2861 27.8125 34.218 27.723C34.1498 27.6321 34.0972 27.5568 34.0603 27.4972H34.0177V29.2273H33.5148ZM34.0091 26.3636C34.0091 26.6108 34.0454 26.8288 34.1178 27.0178C34.1903 27.2053 34.2961 27.3523 34.4353 27.4588C34.5745 27.5639 34.7449 27.6165 34.9466 27.6165C35.1569 27.6165 35.3323 27.5611 35.4729 27.4503C35.615 27.3381 35.7215 27.1875 35.7925 26.9986C35.865 26.8082 35.9012 26.5966 35.9012 26.3636C35.9012 26.1335 35.8657 25.9261 35.7947 25.7415C35.7251 25.5554 35.6192 25.4084 35.4772 25.3004C35.3366 25.1911 35.1597 25.1364 34.9466 25.1364C34.7421 25.1364 34.5702 25.1882 34.431 25.2919C34.2918 25.3942 34.1867 25.5376 34.1157 25.7223C34.0447 25.9055 34.0091 26.1193 34.0091 26.3636Z" fill="#FF0202"/>
<path d="M37.6739 23.6364V28H37.1711V23.6364H37.6739Z" fill="#FF0202"/>
<path d="M38.5949 28V24.7273H39.0977V28H38.5949ZM38.8506 24.1818C38.7526 24.1818 38.6681 24.1484 38.597 24.0817C38.5274 24.0149 38.4926 23.9347 38.4926 23.8409C38.4926 23.7472 38.5274 23.6669 38.597 23.6001C38.6681 23.5334 38.7526 23.5 38.8506 23.5C38.9486 23.5 39.0324 23.5334 39.102 23.6001C39.173 23.6669 39.2085 23.7472 39.2085 23.8409C39.2085 23.9347 39.173 24.0149 39.102 24.0817C39.0324 24.1484 38.9486 24.1818 38.8506 24.1818Z" fill="#FF0202"/>
<path d="M40.4875 26.8068L40.479 26.1847H40.5812L42.0131 24.7273H42.6352L41.1096 26.2699H41.067L40.4875 26.8068ZM40.0187 28V23.6364H40.5216V28H40.0187ZM42.0983 28L40.8199 26.3807L41.1778 26.0312L42.7375 28H42.0983Z" fill="#FF0202"/>
<path d="M44.2455 28.0767C44.0381 28.0767 43.8499 28.0376 43.6808 27.9595C43.5118 27.88 43.3776 27.7656 43.2781 27.6165C43.1787 27.4659 43.129 27.2841 43.129 27.071C43.129 26.8835 43.1659 26.7315 43.2398 26.6151C43.3137 26.4972 43.4124 26.4048 43.536 26.3381C43.6595 26.2713 43.7959 26.2216 43.945 26.1889C44.0956 26.1548 44.2469 26.1278 44.3989 26.108C44.5977 26.0824 44.759 26.0632 44.8825 26.0504C45.0075 26.0362 45.0985 26.0128 45.1553 25.9801C45.2135 25.9474 45.2426 25.8906 45.2426 25.8097V25.7926C45.2426 25.5824 45.1851 25.419 45.07 25.3026C44.9564 25.1861 44.7838 25.1278 44.5523 25.1278C44.3122 25.1278 44.124 25.1804 43.9877 25.2855C43.8513 25.3906 43.7554 25.5028 43.7 25.6222L43.2227 25.4517C43.308 25.2528 43.4216 25.098 43.5637 24.9872C43.7071 24.875 43.8634 24.7969 44.0324 24.7528C44.2029 24.7074 44.3705 24.6847 44.5352 24.6847C44.6404 24.6847 44.7611 24.6974 44.8975 24.723C45.0352 24.7472 45.1681 24.7976 45.2959 24.8743C45.4252 24.951 45.5324 25.0668 45.6176 25.2216C45.7029 25.3764 45.7455 25.5838 45.7455 25.8438V28H45.2426V27.5568H45.2171C45.183 27.6278 45.1262 27.7038 45.0466 27.7848C44.9671 27.8658 44.8612 27.9347 44.7291 27.9915C44.597 28.0483 44.4358 28.0767 44.2455 28.0767ZM44.3222 27.625C44.521 27.625 44.6887 27.5859 44.825 27.5078C44.9628 27.4297 45.0665 27.3288 45.1361 27.2053C45.2071 27.0817 45.2426 26.9517 45.2426 26.8153V26.3551C45.2213 26.3807 45.1744 26.4041 45.102 26.4254C45.031 26.4453 44.9486 26.4631 44.8548 26.4787C44.7625 26.4929 44.6723 26.5057 44.5843 26.517C44.4976 26.527 44.4273 26.5355 44.3733 26.5426C44.2426 26.5597 44.1205 26.5874 44.0068 26.6257C43.8946 26.6626 43.8037 26.7187 43.7341 26.794C43.6659 26.8679 43.6318 26.9688 43.6318 27.0966C43.6318 27.2713 43.6965 27.4034 43.8257 27.4929C43.9564 27.581 44.1219 27.625 44.3222 27.625Z" fill="#FF0202"/>
<path d="M48.9814 25.4602L48.5297 25.5881C48.5013 25.5128 48.4594 25.4396 48.404 25.3686C48.3501 25.2962 48.2762 25.2365 48.1824 25.1896C48.0887 25.1428 47.9687 25.1193 47.8224 25.1193C47.6221 25.1193 47.4552 25.1655 47.3216 25.2578C47.1895 25.3487 47.1235 25.4645 47.1235 25.6051C47.1235 25.7301 47.1689 25.8288 47.2599 25.9013C47.3508 25.9737 47.4928 26.0341 47.686 26.0824L48.1718 26.2017C48.4644 26.2727 48.6824 26.3814 48.8259 26.5277C48.9694 26.6726 49.0411 26.8594 49.0411 27.0881C49.0411 27.2756 48.9871 27.4432 48.8792 27.5909C48.7726 27.7386 48.6235 27.8551 48.4317 27.9403C48.24 28.0256 48.017 28.0682 47.7627 28.0682C47.4289 28.0682 47.1526 27.9957 46.9339 27.8509C46.7151 27.706 46.5766 27.4943 46.5184 27.2159L46.9956 27.0966C47.0411 27.2727 47.127 27.4048 47.2535 27.4929C47.3813 27.581 47.5482 27.625 47.7542 27.625C47.9885 27.625 48.1746 27.5753 48.3124 27.4759C48.4516 27.375 48.5212 27.2543 48.5212 27.1136C48.5212 27 48.4814 26.9048 48.4019 26.8281C48.3224 26.75 48.2002 26.6918 48.0354 26.6534L47.49 26.5256C47.1903 26.4545 46.9701 26.3445 46.8295 26.1953C46.6903 26.0447 46.6206 25.8565 46.6206 25.6307C46.6206 25.446 46.6725 25.2827 46.7762 25.1406C46.8813 24.9986 47.0241 24.8871 47.2045 24.8061C47.3863 24.7251 47.5922 24.6847 47.8224 24.6847C48.1462 24.6847 48.4005 24.7557 48.5851 24.8977C48.7712 25.0398 48.9033 25.2273 48.9814 25.4602Z" fill="#FF0202"/>
<path d="M49.798 28V24.7273H50.3009V28H49.798ZM50.0537 24.1818C49.9557 24.1818 49.8712 24.1484 49.8002 24.0817C49.7306 24.0149 49.6958 23.9347 49.6958 23.8409C49.6958 23.7472 49.7306 23.6669 49.8002 23.6001C49.8712 23.5334 49.9557 23.5 50.0537 23.5C50.1517 23.5 50.2355 23.5334 50.3051 23.6001C50.3762 23.6669 50.4117 23.7472 50.4117 23.8409C50.4117 23.9347 50.3762 24.0149 50.3051 24.0817C50.2355 24.1484 50.1517 24.1818 50.0537 24.1818Z" fill="#FF0202"/>
<path d="M52.9094 29.2273V24.7273H53.3952V25.2472H53.4548C53.4917 25.1903 53.5429 25.1179 53.6082 25.0298C53.675 24.9403 53.7702 24.8608 53.8937 24.7912C54.0187 24.7202 54.1878 24.6847 54.4008 24.6847C54.6764 24.6847 54.9193 24.7536 55.1295 24.8913C55.3398 25.0291 55.5038 25.2244 55.6217 25.4773C55.7396 25.7301 55.7986 26.0284 55.7986 26.3722C55.7986 26.7187 55.7396 27.0192 55.6217 27.2734C55.5038 27.5263 55.3405 27.7223 55.1317 27.8615C54.9229 27.9993 54.6821 28.0682 54.4094 28.0682C54.1991 28.0682 54.0308 28.0334 53.9044 27.9638C53.778 27.8928 53.6807 27.8125 53.6125 27.723C53.5443 27.6321 53.4917 27.5568 53.4548 27.4972H53.4122V29.2273H52.9094ZM53.4037 26.3636C53.4037 26.6108 53.4399 26.8288 53.5123 27.0178C53.5848 27.2053 53.6906 27.3523 53.8298 27.4588C53.969 27.5639 54.1395 27.6165 54.3412 27.6165C54.5514 27.6165 54.7268 27.5611 54.8675 27.4503C55.0095 27.3381 55.116 27.1875 55.1871 26.9986C55.2595 26.8082 55.2957 26.5966 55.2957 26.3636C55.2957 26.1335 55.2602 25.9261 55.1892 25.7415C55.1196 25.5554 55.0138 25.4084 54.8717 25.3004C54.7311 25.1911 54.5542 25.1364 54.3412 25.1364C54.1366 25.1364 53.9648 25.1882 53.8256 25.2919C53.6863 25.3942 53.5812 25.5376 53.5102 25.7223C53.4392 25.9055 53.4037 26.1193 53.4037 26.3636Z" fill="#FF0202"/>
<path d="M57.9378 28.0682C57.6224 28.0682 57.3504 27.9986 57.1217 27.8594C56.8944 27.7188 56.719 27.5227 56.5954 27.2713C56.4733 27.0185 56.4122 26.7244 56.4122 26.3892C56.4122 26.054 56.4733 25.7585 56.5954 25.5028C56.719 25.2457 56.8909 25.0455 57.1111 24.902C57.3327 24.7571 57.5912 24.6847 57.8866 24.6847C58.0571 24.6847 58.2254 24.7131 58.3916 24.7699C58.5578 24.8267 58.7091 24.919 58.8454 25.0469C58.9818 25.1733 59.0905 25.3409 59.1714 25.5497C59.2524 25.7585 59.2929 26.0156 59.2929 26.321V26.5341H56.7702V26.0994H58.7815C58.7815 25.9148 58.7446 25.75 58.6707 25.6051C58.5983 25.4602 58.4946 25.3459 58.3596 25.2621C58.2261 25.1783 58.0684 25.1364 57.8866 25.1364C57.6863 25.1364 57.513 25.1861 57.3667 25.2855C57.2219 25.3835 57.1104 25.5114 57.0322 25.669C56.9541 25.8267 56.915 25.9957 56.915 26.1761V26.4659C56.915 26.7131 56.9577 26.9226 57.0429 27.0945C57.1295 27.2649 57.2496 27.3949 57.403 27.4844C57.5564 27.5724 57.7346 27.6165 57.9378 27.6165C58.0699 27.6165 58.1892 27.598 58.2957 27.5611C58.4037 27.5227 58.4967 27.4659 58.5748 27.3906C58.653 27.3139 58.7133 27.2187 58.7559 27.1051L59.2417 27.2415C59.1906 27.4062 59.1047 27.5511 58.9839 27.6761C58.8632 27.7997 58.714 27.8963 58.5365 27.9659C58.3589 28.0341 58.1594 28.0682 57.9378 28.0682Z" fill="#FF0202"/>
<path d="M60.5606 26.0312V28H60.0578V24.7273H60.5436V25.2386H60.5862C60.6629 25.0724 60.7794 24.9389 60.9356 24.8381C61.0919 24.7358 61.2936 24.6847 61.5407 24.6847C61.7623 24.6847 61.9562 24.7301 62.1224 24.821C62.2886 24.9105 62.4179 25.0469 62.5102 25.2301C62.6025 25.4119 62.6487 25.642 62.6487 25.9205V28H62.1459V25.9545C62.1459 25.6974 62.0791 25.4972 61.9456 25.3537C61.8121 25.2088 61.6288 25.1364 61.3959 25.1364C61.2354 25.1364 61.0919 25.1712 60.9655 25.2408C60.8405 25.3104 60.7417 25.4119 60.6693 25.5455C60.5969 25.679 60.5606 25.8409 60.5606 26.0312Z" fill="#FF0202"/>
<path d="M64.5306 28.0767C64.3232 28.0767 64.135 28.0376 63.966 27.9595C63.797 27.88 63.6627 27.7656 63.5633 27.6165C63.4639 27.4659 63.4142 27.2841 63.4142 27.071C63.4142 26.8835 63.4511 26.7315 63.5249 26.6151C63.5988 26.4972 63.6975 26.4048 63.8211 26.3381C63.9447 26.2713 64.0811 26.2216 64.2302 26.1889C64.3808 26.1548 64.532 26.1278 64.684 26.108C64.8829 26.0824 65.0441 26.0632 65.1677 26.0504C65.2927 26.0362 65.3836 26.0128 65.4404 25.9801C65.4987 25.9474 65.5278 25.8906 65.5278 25.8097V25.7926C65.5278 25.5824 65.4703 25.419 65.3552 25.3026C65.2416 25.1861 65.069 25.1278 64.8374 25.1278C64.5974 25.1278 64.4092 25.1804 64.2728 25.2855C64.1365 25.3906 64.0406 25.5028 63.9852 25.6222L63.5079 25.4517C63.5931 25.2528 63.7068 25.098 63.8488 24.9872C63.9923 24.875 64.1485 24.7969 64.3176 24.7528C64.488 24.7074 64.6556 24.6847 64.8204 24.6847C64.9255 24.6847 65.0463 24.6974 65.1826 24.723C65.3204 24.7472 65.4532 24.7976 65.5811 24.8743C65.7103 24.951 65.8176 25.0668 65.9028 25.2216C65.988 25.3764 66.0306 25.5838 66.0306 25.8438V28H65.5278V27.5568H65.5022C65.4681 27.6278 65.4113 27.7038 65.3318 27.7848C65.2522 27.8658 65.1464 27.9347 65.0143 27.9915C64.8822 28.0483 64.721 28.0767 64.5306 28.0767ZM64.6073 27.625C64.8062 27.625 64.9738 27.5859 65.1102 27.5078C65.248 27.4297 65.3517 27.3288 65.4213 27.2053C65.4923 27.0817 65.5278 26.9517 65.5278 26.8153V26.3551C65.5065 26.3807 65.4596 26.4041 65.3872 26.4254C65.3161 26.4453 65.2338 26.4631 65.14 26.4787C65.0477 26.4929 64.9575 26.5057 64.8694 26.517C64.7828 26.527 64.7124 26.5355 64.6585 26.5426C64.5278 26.5597 64.4056 26.5874 64.292 26.6257C64.1798 26.6626 64.0889 26.7187 64.0193 26.794C63.9511 26.8679 63.917 26.9688 63.917 27.0966C63.917 27.2713 63.9816 27.4034 64.1109 27.4929C64.2416 27.581 64.4071 27.625 64.6073 27.625Z" fill="#FF0202"/>
<path d="M67.4513 26.0312V28H66.9484V24.7273H67.4342V25.2386H67.4768C67.5535 25.0724 67.67 24.9389 67.8263 24.8381C67.9825 24.7358 68.1842 24.6847 68.4314 24.6847C68.653 24.6847 68.8469 24.7301 69.0131 24.821C69.1792 24.9105 69.3085 25.0469 69.4008 25.2301C69.4932 25.4119 69.5393 25.642 69.5393 25.9205V28H69.0365V25.9545C69.0365 25.6974 68.9697 25.4972 68.8362 25.3537C68.7027 25.2088 68.5194 25.1364 68.2865 25.1364C68.126 25.1364 67.9825 25.1712 67.8561 25.2408C67.7311 25.3104 67.6324 25.4119 67.5599 25.5455C67.4875 25.679 67.4513 25.8409 67.4513 26.0312Z" fill="#FF0202"/>
<path d="M71.7792 29.2955C71.5363 29.2955 71.3275 29.2642 71.1528 29.2017C70.9781 29.1406 70.8325 29.0597 70.716 28.9588C70.6009 28.8594 70.5093 28.7528 70.4411 28.6392L70.8417 28.358C70.8872 28.4176 70.9447 28.4858 71.0143 28.5625C71.0839 28.6406 71.1791 28.7081 71.2998 28.7649C71.422 28.8232 71.5818 28.8523 71.7792 28.8523C72.0434 28.8523 72.2615 28.7884 72.4333 28.6605C72.6052 28.5327 72.6911 28.3324 72.6911 28.0597V27.3949H72.6485C72.6116 27.4545 72.559 27.5284 72.4909 27.6165C72.4241 27.7031 72.3275 27.7805 72.2011 27.8487C72.0761 27.9155 71.907 27.9489 71.694 27.9489C71.4298 27.9489 71.1926 27.8864 70.9823 27.7614C70.7735 27.6364 70.608 27.4545 70.4859 27.2159C70.3651 26.9773 70.3048 26.6875 70.3048 26.3466C70.3048 26.0114 70.3637 25.7195 70.4816 25.4709C70.5995 25.2209 70.7636 25.0277 70.9738 24.8913C71.184 24.7536 71.4269 24.6847 71.7025 24.6847C71.9156 24.6847 72.0846 24.7202 72.2096 24.7912C72.336 24.8608 72.4326 24.9403 72.4994 25.0298C72.5676 25.1179 72.6201 25.1903 72.657 25.2472H72.7082V24.7273H73.194V28.0938C73.194 28.375 73.1301 28.6037 73.0022 28.7798C72.8758 28.9574 72.7053 29.0874 72.4909 29.1697C72.2778 29.2536 72.0406 29.2955 71.7792 29.2955ZM71.7622 27.4972C71.9639 27.4972 72.1343 27.451 72.2735 27.3587C72.4127 27.2663 72.5186 27.1335 72.591 26.9602C72.6634 26.7869 72.6997 26.5795 72.6997 26.3381C72.6997 26.1023 72.6642 25.8942 72.5931 25.7138C72.5221 25.5334 72.417 25.392 72.2778 25.2898C72.1386 25.1875 71.9667 25.1364 71.7622 25.1364C71.5491 25.1364 71.3715 25.1903 71.2295 25.2983C71.0889 25.4062 70.983 25.5511 70.912 25.733C70.8424 25.9148 70.8076 26.1165 70.8076 26.3381C70.8076 26.5653 70.8431 26.7663 70.9142 26.9411C70.9866 27.1143 71.0931 27.2507 71.2338 27.3501C71.3758 27.4482 71.5519 27.4972 71.7622 27.4972Z" fill="#FF0202"/>
<path d="M75.0775 28.0767C74.8701 28.0767 74.6819 28.0376 74.5129 27.9595C74.3438 27.88 74.2096 27.7656 74.1102 27.6165C74.0107 27.4659 73.961 27.2841 73.961 27.071C73.961 26.8835 73.998 26.7315 74.0718 26.6151C74.1457 26.4972 74.2444 26.4048 74.368 26.3381C74.4916 26.2713 74.6279 26.2216 74.7771 26.1889C74.9276 26.1548 75.0789 26.1278 75.2309 26.108C75.4298 26.0824 75.591 26.0632 75.7146 26.0504C75.8396 26.0362 75.9305 26.0128 75.9873 25.9801C76.0455 25.9474 76.0747 25.8906 76.0747 25.8097V25.7926C76.0747 25.5824 76.0171 25.419 75.9021 25.3026C75.7884 25.1861 75.6159 25.1278 75.3843 25.1278C75.1443 25.1278 74.9561 25.1804 74.8197 25.2855C74.6833 25.3906 74.5874 25.5028 74.532 25.6222L74.0548 25.4517C74.14 25.2528 74.2536 25.098 74.3957 24.9872C74.5392 24.875 74.6954 24.7969 74.8644 24.7528C75.0349 24.7074 75.2025 24.6847 75.3673 24.6847C75.4724 24.6847 75.5931 24.6974 75.7295 24.723C75.8673 24.7472 76.0001 24.7976 76.1279 24.8743C76.2572 24.951 76.3644 25.0668 76.4497 25.2216C76.5349 25.3764 76.5775 25.5838 76.5775 25.8438V28H76.0747V27.5568H76.0491C76.015 27.6278 75.9582 27.7038 75.8786 27.7848C75.7991 27.8658 75.6933 27.9347 75.5612 27.9915C75.4291 28.0483 75.2678 28.0767 75.0775 28.0767ZM75.1542 27.625C75.3531 27.625 75.5207 27.5859 75.657 27.5078C75.7948 27.4297 75.8985 27.3288 75.9681 27.2053C76.0392 27.0817 76.0747 26.9517 76.0747 26.8153V26.3551C76.0534 26.3807 76.0065 26.4041 75.934 26.4254C75.863 26.4453 75.7806 26.4631 75.6869 26.4787C75.5945 26.4929 75.5044 26.5057 75.4163 26.517C75.3296 26.527 75.2593 26.5355 75.2053 26.5426C75.0747 26.5597 74.9525 26.5874 74.8389 26.6257C74.7267 26.6626 74.6357 26.7187 74.5661 26.794C74.498 26.8679 74.4639 26.9688 74.4639 27.0966C74.4639 27.2713 74.5285 27.4034 74.6578 27.4929C74.7884 27.581 74.9539 27.625 75.1542 27.625Z" fill="#FF0202"/>
<path d="M77.9981 26.0312V28H77.4953V24.7273H77.9811V25.2386H78.0237C78.1004 25.0724 78.2169 24.9389 78.3731 24.8381C78.5294 24.7358 78.7311 24.6847 78.9782 24.6847C79.1998 24.6847 79.3937 24.7301 79.5599 24.821C79.7261 24.9105 79.8554 25.0469 79.9477 25.2301C80.04 25.4119 80.0862 25.642 80.0862 25.9205V28H79.5834V25.9545C79.5834 25.6974 79.5166 25.4972 79.3831 25.3537C79.2496 25.2088 79.0663 25.1364 78.8334 25.1364C78.6729 25.1364 78.5294 25.1712 78.403 25.2408C78.278 25.3104 78.1792 25.4119 78.1068 25.5455C78.0344 25.679 77.9981 25.8409 77.9981 26.0312Z" fill="#FF0202"/>
<path d="M81.9681 28.0767C81.7607 28.0767 81.5725 28.0376 81.4035 27.9595C81.2345 27.88 81.1002 27.7656 81.0008 27.6165C80.9014 27.4659 80.8517 27.2841 80.8517 27.071C80.8517 26.8835 80.8886 26.7315 80.9624 26.6151C81.0363 26.4972 81.135 26.4048 81.2586 26.3381C81.3822 26.2713 81.5186 26.2216 81.6677 26.1889C81.8183 26.1548 81.9695 26.1278 82.1215 26.108C82.3204 26.0824 82.4816 26.0632 82.6052 26.0504C82.7302 26.0362 82.8211 26.0128 82.8779 25.9801C82.9362 25.9474 82.9653 25.8906 82.9653 25.8097V25.7926C82.9653 25.5824 82.9078 25.419 82.7927 25.3026C82.6791 25.1861 82.5065 25.1278 82.2749 25.1278C82.0349 25.1278 81.8467 25.1804 81.7103 25.2855C81.574 25.3906 81.4781 25.5028 81.4227 25.6222L80.9454 25.4517C81.0306 25.2528 81.1443 25.098 81.2863 24.9872C81.4298 24.875 81.586 24.7969 81.7551 24.7528C81.9255 24.7074 82.0931 24.6847 82.2579 24.6847C82.363 24.6847 82.4838 24.6974 82.6201 24.723C82.7579 24.7472 82.8907 24.7976 83.0186 24.8743C83.1478 24.951 83.2551 25.0668 83.3403 25.2216C83.4255 25.3764 83.4681 25.5838 83.4681 25.8438V28H82.9653V27.5568H82.9397C82.9056 27.6278 82.8488 27.7038 82.7693 27.7848C82.6897 27.8658 82.5839 27.9347 82.4518 27.9915C82.3197 28.0483 82.1585 28.0767 81.9681 28.0767ZM82.0448 27.625C82.2437 27.625 82.4113 27.5859 82.5477 27.5078C82.6855 27.4297 82.7892 27.3288 82.8588 27.2053C82.9298 27.0817 82.9653 26.9517 82.9653 26.8153V26.3551C82.944 26.3807 82.8971 26.4041 82.8247 26.4254C82.7536 26.4453 82.6713 26.4631 82.5775 26.4787C82.4852 26.4929 82.395 26.5057 82.3069 26.517C82.2203 26.527 82.1499 26.5355 82.096 26.5426C81.9653 26.5597 81.8431 26.5874 81.7295 26.6257C81.6173 26.6626 81.5264 26.7187 81.4568 26.794C81.3886 26.8679 81.3545 26.9688 81.3545 27.0966C81.3545 27.2713 81.4191 27.4034 81.5484 27.4929C81.6791 27.581 81.8446 27.625 82.0448 27.625Z" fill="#FF0202"/>
<path d="M84.8888 26.0312V28H84.3859V24.7273H84.8717V25.2386H84.9143C84.991 25.0724 85.1075 24.9389 85.2638 24.8381C85.42 24.7358 85.6217 24.6847 85.8689 24.6847C86.0905 24.6847 86.2844 24.7301 86.4506 24.821C86.6167 24.9105 86.746 25.0469 86.8383 25.2301C86.9307 25.4119 86.9768 25.642 86.9768 25.9205V28H86.474V25.9545C86.474 25.6974 86.4072 25.4972 86.2737 25.3537C86.1402 25.2088 85.9569 25.1364 85.724 25.1364C85.5635 25.1364 85.42 25.1712 85.2936 25.2408C85.1686 25.3104 85.0699 25.4119 84.9974 25.5455C84.925 25.679 84.8888 25.8409 84.8888 26.0312Z" fill="#FF0202"/>
<path d="M89.6514 28V23.6364H90.1798V25.5795H92.5065V23.6364H93.0349V28H92.5065V26.0483H90.1798V28H89.6514Z" fill="#FF0202"/>
<path d="M94.6212 23.6364V28H94.0928V23.6364H94.6212Z" fill="#FF0202"/>
<path d="M95.8596 23.6364L97.1551 27.3097H97.2062L98.5017 23.6364H99.0557L97.4534 28H96.9079L95.3057 23.6364H95.8596Z" fill="#FF0202"/>
<path d="M102.778 24.7273V25.1534H101.082V24.7273H102.778ZM101.576 23.9432H102.079V27.0625C102.079 27.2045 102.1 27.3111 102.141 27.3821C102.184 27.4517 102.237 27.4986 102.303 27.5227C102.37 27.5455 102.44 27.5568 102.514 27.5568C102.569 27.5568 102.615 27.554 102.65 27.5483C102.686 27.5412 102.714 27.5355 102.735 27.5312L102.838 27.983C102.804 27.9957 102.756 28.0085 102.695 28.0213C102.634 28.0355 102.556 28.0426 102.463 28.0426C102.321 28.0426 102.181 28.0121 102.045 27.951C101.91 27.8899 101.798 27.7969 101.708 27.6719C101.62 27.5469 101.576 27.3892 101.576 27.1989V23.9432Z" fill="#FF0202"/>
<path d="M104.871 28.0682C104.556 28.0682 104.284 27.9986 104.055 27.8594C103.828 27.7188 103.653 27.5227 103.529 27.2713C103.407 27.0185 103.346 26.7244 103.346 26.3892C103.346 26.054 103.407 25.7585 103.529 25.5028C103.653 25.2457 103.824 25.0455 104.045 24.902C104.266 24.7571 104.525 24.6847 104.82 24.6847C104.991 24.6847 105.159 24.7131 105.325 24.7699C105.491 24.8267 105.643 24.919 105.779 25.0469C105.915 25.1733 106.024 25.3409 106.105 25.5497C106.186 25.7585 106.226 26.0156 106.226 26.321V26.5341H103.704V26.0994H105.715C105.715 25.9148 105.678 25.75 105.604 25.6051C105.532 25.4602 105.428 25.3459 105.293 25.2621C105.16 25.1783 105.002 25.1364 104.82 25.1364C104.62 25.1364 104.447 25.1861 104.3 25.2855C104.155 25.3835 104.044 25.5114 103.966 25.669C103.888 25.8267 103.849 25.9957 103.849 26.1761V26.4659C103.849 26.7131 103.891 26.9226 103.976 27.0945C104.063 27.2649 104.183 27.3949 104.337 27.4844C104.49 27.5724 104.668 27.6165 104.871 27.6165C105.003 27.6165 105.123 27.598 105.229 27.5611C105.337 27.5227 105.43 27.4659 105.508 27.3906C105.587 27.3139 105.647 27.2187 105.69 27.1051L106.175 27.2415C106.124 27.4062 106.038 27.5511 105.918 27.6761C105.797 27.7997 105.648 27.8963 105.47 27.9659C105.293 28.0341 105.093 28.0682 104.871 28.0682Z" fill="#FF0202"/>
<path d="M106.991 28V24.7273H107.477V25.2216H107.511C107.571 25.0597 107.679 24.9283 107.835 24.8274C107.991 24.7266 108.168 24.6761 108.364 24.6761C108.4 24.6761 108.447 24.6768 108.502 24.6783C108.557 24.6797 108.599 24.6818 108.628 24.6847V25.196C108.611 25.1918 108.572 25.1854 108.511 25.1768C108.451 25.1669 108.388 25.1619 108.321 25.1619C108.162 25.1619 108.02 25.1953 107.895 25.2621C107.771 25.3274 107.673 25.4183 107.601 25.5348C107.53 25.6499 107.494 25.7812 107.494 25.929V28H106.991Z" fill="#FF0202"/>
<path d="M109.224 28V24.7273H109.727V28H109.224ZM109.479 24.1818C109.381 24.1818 109.297 24.1484 109.226 24.0817C109.156 24.0149 109.122 23.9347 109.122 23.8409C109.122 23.7472 109.156 23.6669 109.226 23.6001C109.297 23.5334 109.381 23.5 109.479 23.5C109.578 23.5 109.661 23.5334 109.731 23.6001C109.802 23.6669 109.837 23.7472 109.837 23.8409C109.837 23.9347 109.802 24.0149 109.731 24.0817C109.661 24.1484 109.578 24.1818 109.479 24.1818Z" fill="#FF0202"/>
<path d="M111.15 26.0312V28H110.648V24.7273H111.133V25.2386H111.176C111.253 25.0724 111.369 24.9389 111.525 24.8381C111.682 24.7358 111.883 24.6847 112.131 24.6847C112.352 24.6847 112.546 24.7301 112.712 24.821C112.878 24.9105 113.008 25.0469 113.1 25.2301C113.192 25.4119 113.239 25.642 113.239 25.9205V28H112.736V25.9545C112.736 25.6974 112.669 25.4972 112.535 25.3537C112.402 25.2088 112.219 25.1364 111.986 25.1364C111.825 25.1364 111.682 25.1712 111.555 25.2408C111.43 25.3104 111.332 25.4119 111.259 25.5455C111.187 25.679 111.15 25.8409 111.15 26.0312Z" fill="#FF0202"/>
<path d="M115.581 24.7273V25.1534H113.885V24.7273H115.581ZM114.379 23.9432H114.882V27.0625C114.882 27.2045 114.902 27.3111 114.944 27.3821C114.986 27.4517 115.04 27.4986 115.106 27.5227C115.172 27.5455 115.243 27.5568 115.316 27.5568C115.372 27.5568 115.417 27.554 115.453 27.5483C115.488 27.5412 115.517 27.5355 115.538 27.5312L115.64 27.983C115.606 27.9957 115.559 28.0085 115.498 28.0213C115.437 28.0355 115.359 28.0426 115.265 28.0426C115.123 28.0426 114.984 28.0121 114.848 27.951C114.713 27.8899 114.601 27.7969 114.511 27.6719C114.423 27.5469 114.379 27.3892 114.379 27.1989V23.9432Z" fill="#FF0202"/>
<path d="M117.674 28.0682C117.359 28.0682 117.087 27.9986 116.858 27.8594C116.631 27.7188 116.455 27.5227 116.332 27.2713C116.21 27.0185 116.149 26.7244 116.149 26.3892C116.149 26.054 116.21 25.7585 116.332 25.5028C116.455 25.2457 116.627 25.0455 116.847 24.902C117.069 24.7571 117.328 24.6847 117.623 24.6847C117.793 24.6847 117.962 24.7131 118.128 24.7699C118.294 24.8267 118.445 24.919 118.582 25.0469C118.718 25.1733 118.827 25.3409 118.908 25.5497C118.989 25.7585 119.029 26.0156 119.029 26.321V26.5341H116.506V26.0994H118.518C118.518 25.9148 118.481 25.75 118.407 25.6051C118.335 25.4602 118.231 25.3459 118.096 25.2621C117.962 25.1783 117.805 25.1364 117.623 25.1364C117.423 25.1364 117.249 25.1861 117.103 25.2855C116.958 25.3835 116.847 25.5114 116.769 25.669C116.69 25.8267 116.651 25.9957 116.651 26.1761V26.4659C116.651 26.7131 116.694 26.9226 116.779 27.0945C116.866 27.2649 116.986 27.3949 117.139 27.4844C117.293 27.5724 117.471 27.6165 117.674 27.6165C117.806 27.6165 117.926 27.598 118.032 27.5611C118.14 27.5227 118.233 27.4659 118.311 27.3906C118.389 27.3139 118.45 27.2187 118.492 27.1051L118.978 27.2415C118.927 27.4062 118.841 27.5511 118.72 27.6761C118.6 27.7997 118.45 27.8963 118.273 27.9659C118.095 28.0341 117.896 28.0682 117.674 28.0682Z" fill="#FF0202"/>
<path d="M121.115 29.2955C120.872 29.2955 120.663 29.2642 120.489 29.2017C120.314 29.1406 120.168 29.0597 120.052 28.9588C119.937 28.8594 119.845 28.7528 119.777 28.6392L120.178 28.358C120.223 28.4176 120.281 28.4858 120.35 28.5625C120.42 28.6406 120.515 28.7081 120.636 28.7649C120.758 28.8232 120.918 28.8523 121.115 28.8523C121.379 28.8523 121.597 28.7884 121.769 28.6605C121.941 28.5327 122.027 28.3324 122.027 28.0597V27.3949H121.984C121.948 27.4545 121.895 27.5284 121.827 27.6165C121.76 27.7031 121.663 27.7805 121.537 27.8487C121.412 27.9155 121.243 27.9489 121.03 27.9489C120.766 27.9489 120.528 27.8864 120.318 27.7614C120.109 27.6364 119.944 27.4545 119.822 27.2159C119.701 26.9773 119.641 26.6875 119.641 26.3466C119.641 26.0114 119.7 25.7195 119.818 25.4709C119.935 25.2209 120.1 25.0277 120.31 24.8913C120.52 24.7536 120.763 24.6847 121.038 24.6847C121.252 24.6847 121.421 24.7202 121.546 24.7912C121.672 24.8608 121.769 24.9403 121.835 25.0298C121.904 25.1179 121.956 25.1903 121.993 25.2472H122.044V24.7273H122.53V28.0938C122.53 28.375 122.466 28.6037 122.338 28.7798C122.212 28.9574 122.041 29.0874 121.827 29.1697C121.614 29.2536 121.377 29.2955 121.115 29.2955ZM121.098 27.4972C121.3 27.4972 121.47 27.451 121.609 27.3587C121.749 27.2663 121.854 27.1335 121.927 26.9602C121.999 26.7869 122.036 26.5795 122.036 26.3381C122.036 26.1023 122 25.8942 121.929 25.7138C121.858 25.5334 121.753 25.392 121.614 25.2898C121.475 25.1875 121.303 25.1364 121.098 25.1364C120.885 25.1364 120.707 25.1903 120.565 25.2983C120.425 25.4062 120.319 25.5511 120.248 25.733C120.178 25.9148 120.144 26.1165 120.144 26.3381C120.144 26.5653 120.179 26.7663 120.25 26.9411C120.323 27.1143 120.429 27.2507 120.57 27.3501C120.712 27.4482 120.888 27.4972 121.098 27.4972Z" fill="#FF0202"/>
<path d="M123.45 28V24.7273H123.936V25.2216H123.97C124.03 25.0597 124.138 24.9283 124.294 24.8274C124.45 24.7266 124.627 24.6761 124.823 24.6761C124.859 24.6761 124.906 24.6768 124.961 24.6783C125.016 24.6797 125.058 24.6818 125.087 24.6847V25.196C125.07 25.1918 125.031 25.1854 124.97 25.1768C124.91 25.1669 124.847 25.1619 124.78 25.1619C124.621 25.1619 124.479 25.1953 124.354 25.2621C124.23 25.3274 124.132 25.4183 124.06 25.5348C123.989 25.6499 123.953 25.7812 123.953 25.929V28H123.45Z" fill="#FF0202"/>
<path d="M126.646 28.0767C126.438 28.0767 126.25 28.0376 126.081 27.9595C125.912 27.88 125.778 27.7656 125.679 27.6165C125.579 27.4659 125.529 27.2841 125.529 27.071C125.529 26.8835 125.566 26.7315 125.64 26.6151C125.714 26.4972 125.813 26.4048 125.936 26.3381C126.06 26.2713 126.196 26.2216 126.345 26.1889C126.496 26.1548 126.647 26.1278 126.799 26.108C126.998 26.0824 127.159 26.0632 127.283 26.0504C127.408 26.0362 127.499 26.0128 127.556 25.9801C127.614 25.9474 127.643 25.8906 127.643 25.8097V25.7926C127.643 25.5824 127.585 25.419 127.47 25.3026C127.357 25.1861 127.184 25.1278 126.953 25.1278C126.713 25.1278 126.524 25.1804 126.388 25.2855C126.252 25.3906 126.156 25.5028 126.1 25.6222L125.623 25.4517C125.708 25.2528 125.822 25.098 125.964 24.9872C126.108 24.875 126.264 24.7969 126.433 24.7528C126.603 24.7074 126.771 24.6847 126.936 24.6847C127.041 24.6847 127.161 24.6974 127.298 24.723C127.436 24.7472 127.568 24.7976 127.696 24.8743C127.826 24.951 127.933 25.0668 128.018 25.2216C128.103 25.3764 128.146 25.5838 128.146 25.8438V28H127.643V27.5568H127.617C127.583 27.6278 127.527 27.7038 127.447 27.7848C127.367 27.8658 127.262 27.9347 127.13 27.9915C126.997 28.0483 126.836 28.0767 126.646 28.0767ZM126.723 27.625C126.921 27.625 127.089 27.5859 127.225 27.5078C127.363 27.4297 127.467 27.3288 127.536 27.2053C127.608 27.0817 127.643 26.9517 127.643 26.8153V26.3551C127.622 26.3807 127.575 26.4041 127.502 26.4254C127.431 26.4453 127.349 26.4631 127.255 26.4787C127.163 26.4929 127.073 26.5057 126.985 26.517C126.898 26.527 126.828 26.5355 126.774 26.5426C126.643 26.5597 126.521 26.5874 126.407 26.6257C126.295 26.6626 126.204 26.7187 126.134 26.794C126.066 26.8679 126.032 26.9688 126.032 27.0966C126.032 27.2713 126.097 27.4034 126.226 27.4929C126.357 27.581 126.522 27.625 126.723 27.625Z" fill="#FF0202"/>
<path d="M131.382 25.4602L130.93 25.5881C130.902 25.5128 130.86 25.4396 130.804 25.3686C130.75 25.2962 130.677 25.2365 130.583 25.1896C130.489 25.1428 130.369 25.1193 130.223 25.1193C130.022 25.1193 129.856 25.1655 129.722 25.2578C129.59 25.3487 129.524 25.4645 129.524 25.6051C129.524 25.7301 129.569 25.8288 129.66 25.9013C129.751 25.9737 129.893 26.0341 130.086 26.0824L130.572 26.2017C130.865 26.2727 131.083 26.3814 131.226 26.5277C131.37 26.6726 131.441 26.8594 131.441 27.0881C131.441 27.2756 131.388 27.4432 131.28 27.5909C131.173 27.7386 131.024 27.8551 130.832 27.9403C130.64 28.0256 130.417 28.0682 130.163 28.0682C129.829 28.0682 129.553 27.9957 129.334 27.8509C129.116 27.706 128.977 27.4943 128.919 27.2159L129.396 27.0966C129.441 27.2727 129.527 27.4048 129.654 27.4929C129.782 27.581 129.949 27.625 130.155 27.625C130.389 27.625 130.575 27.5753 130.713 27.4759C130.852 27.375 130.922 27.2543 130.922 27.1136C130.922 27 130.882 26.9048 130.802 26.8281C130.723 26.75 130.601 26.6918 130.436 26.6534L129.89 26.5256C129.591 26.4545 129.37 26.3445 129.23 26.1953C129.091 26.0447 129.021 25.8565 129.021 25.6307C129.021 25.446 129.073 25.2827 129.177 25.1406C129.282 24.9986 129.424 24.8871 129.605 24.8061C129.787 24.7251 129.993 24.6847 130.223 24.6847C130.547 24.6847 130.801 24.7557 130.986 24.8977C131.172 25.0398 131.304 25.2273 131.382 25.4602Z" fill="#FF0202"/>
<path d="M132.198 28V24.7273H132.701V28H132.198ZM132.454 24.1818C132.356 24.1818 132.272 24.1484 132.201 24.0817C132.131 24.0149 132.096 23.9347 132.096 23.8409C132.096 23.7472 132.131 23.6669 132.201 23.6001C132.272 23.5334 132.356 23.5 132.454 23.5C132.552 23.5 132.636 23.5334 132.706 23.6001C132.777 23.6669 132.812 23.7472 132.812 23.8409C132.812 23.9347 132.777 24.0149 132.706 24.0817C132.636 24.1484 132.552 24.1818 132.454 24.1818Z" fill="#FF0202"/>
</svg>
